<svg xmlns="http://www.w3.org/2000/svg" xmlns:xlink="http://www.w3.org/1999/xlink"
     width="400" height="150"
     viewBox="0 0 400 150">
  <defs>
    <linearGradient id="gradient-1" x1="49.99999999999999%" y1="0%" x2="50.00000000000001%" y2="100%">
      <stop offset="0.00" stop-color="#CBACF9"/>
      <stop offset="1.00" stop-color="#6078eb"/>
    </linearGradient>
  </defs>
  <rect data-name="background" width="100%" height="100%" fill="transparent"/>
  <g data-name="icon" fill="url(#gradient-1)" data="id:5393605"
     transform="translate(10.726324938609038,15.4213728513163) scale(0.16982334151879494)">
    <g>
      <g>
        <path d="M259.499,253.159c22.283-8.737,36.948-30.527,36.498-54.244c-0.427-22.543-14.046-42.519-34.858-51.397    C198.353,148.251,147.5,199.544,147.5,262.5c0,50.245,32.393,93.061,77.389,108.677c-11.445-14.953-16.752-32.593-15.784-50.376    C210.75,290.526,230.528,263.984,259.499,253.159z M257.5,187.75c5.508,0,10,4.487,10,10c0,5.508-4.488,10-10,10    c-5.508,0-10-4.487-10-10C247.5,192.24,251.987,187.75,257.5,187.75z"/>
        <path d="M142.273,323.87L15.125,375.749l134.061,134.062l53.426-126.346    C176.69,370.579,155.465,349.611,142.273,323.87z M143.175,404.235c-3.906,3.905-10.237,3.904-14.143,0l-6.982-6.982    c-3.905-3.905-3.905-10.237,0-14.143c3.905-3.904,10.237-3.904,14.143,0l6.982,6.982    C147.08,393.998,147.08,400.33,143.175,404.235z"/>
        <path d="M382.899,201.476l126.961-52.24L375.77,15.145l-52.535,126.812    C348.887,154.934,369.862,175.858,382.899,201.476z M382.963,120.765c3.906-3.905,10.236-3.905,14.143,0l6.982,6.982    c3.905,3.905,3.905,10.237,0,14.143c-3.906,3.905-10.236,3.905-14.143,0l-6.982-6.982    C379.058,131.002,379.058,124.67,382.963,120.765z"/>
        <path d="M324.118,382.597l51.62,127.289L509.82,375.804l-126.477-53.171    C370.489,348.359,349.665,369.437,324.118,382.597z M390.662,382.394c3.906-3.904,10.236-3.904,14.143,0    c3.905,3.905,3.905,10.237,0,14.143l-6.983,6.983c-3.907,3.905-10.236,3.904-14.143,0c-3.905-3.905-3.905-10.237,0-14.143    L390.662,382.394z"/>
        <path d="M201.726,141.976L149.214,15.161L15.163,149.212l126.667,52.807    C154.84,176.168,175.911,155.046,201.726,141.976z M121.333,142.605c-3.905-3.905-3.905-10.237,0-14.142l6.983-6.982    c3.906-3.904,10.237-3.905,14.142,0c3.905,3.905,3.905,10.237,0,14.142l-6.983,6.982    C131.57,146.51,125.239,146.511,121.333,142.605z"/>
        <path d="M264.91,377.469c62.302-1.288,112.59-52.364,112.59-114.969c0-49.998-32.075-92.637-76.726-108.443    c9.406,12.603,14.907,28.031,15.218,44.479c0.609,32.078-19.197,61.527-49.285,73.279c-0.049,0.02-0.099,0.038-0.147,0.057    c-21.556,8.029-36.269,27.661-37.484,50.016C227.784,345.616,242.447,368.209,264.91,377.469z M267.5,317.5c5.51,0,10,4.489,10,10    c0,5.508-4.489,10-10,10c-5.508,0-10-4.487-10-10C257.5,321.989,261.988,317.5,267.5,317.5z"/>
        <path d="M221.135,391.009L167.649,517.5h189.596l-51.539-127.09C278.735,399.545,248.897,399.966,221.135,391.009    z M268.513,457.5h-9.875c-5.523,0-10-4.478-10-10s4.477-10,10-10h9.875c5.522,0,10,4.478,10,10S274.035,457.5,268.513,457.5z"/>
        <path d="M390.616,219.927c9.075,27.24,9.183,56.883,0.309,84.197L517.5,357.337V167.718L390.616,219.927z     M458.069,266.931c0,5.522-4.478,10-10,10s-10-4.478-10-10v-9.875c0-5.523,4.478-10,10-10s10,4.477,10,10V266.931z"/>
        <path d="M134.196,220.505L7.5,167.686V357.26l127.003-51.821C125.339,278.195,125.091,248.252,134.196,220.505z     M88.069,267.943c0,5.522-4.477,10-10,10s-10-4.478-10-10v-9.875c0-5.523,4.477-10,10-10s10,4.477,10,10V267.943z"/>
        <path d="M304.766,134.284L357.289,7.5H167.688l52.505,126.797C248.055,125.08,277.879,125.398,304.766,134.284z     M257.625,67.5h9.875c5.522,0,10,4.477,10,10s-4.478,10-10,10h-9.875c-5.523,0-10-4.477-10-10S252.102,67.5,257.625,67.5z"/>
      </g>
    </g>
    <rect x="4.5" y="4.5" width="516" height="516" fill="transparent" pointer-events="all"/>
  </g>
  <g data-name="business_name" fill="url(#gradient-1)" data="id:85"
     transform="translate(123.60990421813327,4.10549476952542) scale(1.4612233275325157)">
    <path d="M16.8359375,18.76953125q5.3125,0,8.115234375,1.884765625t2.802734375,5.400390625q0,1.71875-0.400390625,2.939453125t-1.11328125,2.0703125t-1.69921875,1.40625t-2.138671875,0.947265625q0.80078125,0.21484375,1.611328125,1.15234375t1.650390625,2.314453125t1.69921875,3.056640625t1.728515625,3.3984375t1.7578125,3.33984375t1.77734375,2.890625t1.796875,2.03125t1.806640625,0.76171875q0.390625,0,0.771484375-0.15625t0.595703125-0.3125l0.41015625,0.76171875q-0.390625,0.21484375-0.95703125,0.478515625t-1.328125,0.498046875t-1.708984375,0.400390625t-2.099609375,0.166015625q-1.89453125,0-3.41796875-1.044921875t-2.6171875-2.939453125q-1.11328125-1.953125-2.1875-4.1015625t-2.138671875-4.296875t-2.12890625-4.19921875t-2.138671875-3.84765625l0.15625-0.80078125q1.15234375,0.29296875,2.001953125-0.13671875t1.396484375-1.396484375t0.810546875-2.373046875t0.263671875-3.046875q0-1.171875-0.25390625-2.197265625t-0.712890625-1.796875t-1.103515625-1.2109375t-1.4453125-0.439453125q-0.625,0-1.025390625,0.185546875t-0.634765625,0.46875t-0.322265625,0.60546875t-0.087890625,0.615234375l0,23.1640625q0,1.50390625-0.791015625,2.1875t-2.412109375,0.68359375q-1.640625,0-2.421875-0.68359375t-0.78125-2.1875l0-23.359375q0-1.07421875-1.484375-1.07421875q-1.07421875,0-2.177734375,0.322265625t-1.9921875,0.87890625t-1.455078125,1.328125t-0.56640625,1.669921875q0,0.625,0.166015625,0.99609375t0.380859375,0.556640625t0.439453125,0.234375t0.322265625,0.048828125q0.48828125,0,0.80078125-0.166015625t0.56640625-0.3515625t0.478515625-0.3515625t0.517578125-0.166015625q0.234375,0,0.498046875,0.107421875t0.48828125,0.341796875t0.380859375,0.615234375t0.15625,0.927734375q0,0.78125-0.302734375,1.34765625t-0.78125,0.947265625t-1.09375,0.56640625t-1.220703125,0.185546875q-0.9375,0-1.689453125-0.322265625t-1.279296875-0.888671875t-0.80078125-1.328125t-0.2734375-1.62109375q0-1.62109375,0.60546875-2.861328125t1.708984375-2.138671875t2.646484375-1.494140625t3.41796875-0.947265625t4.013671875-0.498046875t4.443359375-0.146484375z M42.83203125,37.8515625q0-0.48828125-0.3125-0.7421875t-0.80078125-0.25390625q-0.68359375,0-1.298828125,0.3125t-1.083984375,0.91796875t-0.7421875,1.494140625t-0.2734375,2.060546875q0,1.1328125,0.166015625,1.875t0.44921875,1.181640625t0.654296875,0.615234375t0.78125,0.17578125q0.5078125,0,0.95703125-0.263671875t0.78125-0.673828125t0.52734375-0.91796875t0.1953125-1.015625l0-4.765625z M39.7265625,29.296875q-0.6640625,0-1.23046875,0.15625t-0.9765625,0.390625t-0.64453125,0.517578125t-0.234375,0.537109375q0,0.29296875,0.302734375,0.419921875t0.673828125,0.29296875t0.673828125,0.46875t0.302734375,0.927734375q0,0.41015625-0.166015625,0.751953125t-0.44921875,0.60546875t-0.6640625,0.41015625t-0.791015625,0.146484375q-1.09375,0-1.767578125-0.7421875t-0.673828125-1.97265625q0-1.19140625,0.625-2.041015625t1.630859375-1.396484375t2.275390625-0.810546875t2.5390625-0.263671875q1.5234375,0,2.91015625,0.33203125t2.451171875,1.0546875t1.69921875,1.8359375t0.634765625,2.6953125l0,11.03515625q0,0.17578125,0.01953125,0.390625t0.09765625,0.390625t0.234375,0.29296875t0.44921875,0.1171875q0.3515625,0,0.654296875-0.263671875t0.537109375-0.537109375l0.48828125,0.41015625q-0.29296875,0.41015625-0.703125,0.8984375t-0.99609375,0.91796875t-1.3671875,0.72265625t-1.77734375,0.29296875q-1.23046875,0-2.1875-0.732421875t-1.25-2.255859375q-0.625,0.83984375-1.298828125,1.40625t-1.376953125,0.91796875t-1.416015625,0.5078125t-1.435546875,0.15625q-0.9375,0-1.81640625-0.29296875t-1.572265625-0.927734375t-1.11328125-1.650390625t-0.419921875-2.48046875q0-1.77734375,0.703125-2.91015625t1.845703125-1.904296875t2.59765625-1.318359375t2.978515625-1.15234375q1.1328125-0.44921875,1.650390625-1.337890625t0.517578125-1.826171875q0-1.4453125-0.849609375-2.314453125t-2.314453125-0.869140625z M60.99609375,30.9765625q0.1953125-0.25390625,0.341796875-0.546875t0.146484375-0.546875q0-0.37109375-0.5859375-0.52734375t-2.16796875-0.15625q-0.9765625,0-1.62109375,0.234375t-1.064453125,0.576171875t-0.68359375,0.751953125t-0.458984375,0.751953125t-0.380859375,0.576171875t-0.478515625,0.234375q-0.33203125,0-0.576171875-0.21484375t-0.400390625-0.537109375t-0.234375-0.703125t-0.078125-0.732421875q0-0.52734375,0.44921875-0.9765625t1.30859375-0.771484375t2.099609375-0.5078125t2.841796875-0.185546875q2.59765625,0,4.228515625,0.21484375t2.548828125,0.576171875t1.25,0.869140625t0.33203125,1.09375q0,0.3125-0.146484375,0.693359375t-0.3515625,0.732421875t-0.41015625,0.654296875t-0.302734375,0.439453125l-8.125,12.44140625q-0.05859375,0.09765625-0.185546875,0.302734375t-0.126953125,0.458984375q0,0.15625,0.107421875,0.2734375t0.41015625,0.1953125t0.869140625,0.107421875t1.484375,0.029296875q1.171875,0,1.943359375-0.25390625t1.259765625-0.64453125t0.78125-0.830078125t0.5078125-0.830078125t0.419921875-0.64453125t0.537109375-0.25390625t0.5859375,0.244140625t0.4296875,0.615234375t0.263671875,0.80078125t0.087890625,0.78125q0,0.52734375-0.46875,0.986328125t-1.42578125,0.80078125t-2.431640625,0.537109375t-3.486328125,0.1953125q-2.16796875,0-3.69140625-0.17578125t-2.48046875-0.517578125t-1.38671875-0.869140625t-0.4296875-1.23046875q0-0.56640625,0.263671875-1.123046875t0.771484375-1.279296875z M87.71484375,46.25q0,0.25390625-0.078125,0.60546875t-0.380859375,0.6640625t-0.908203125,0.537109375t-1.640625,0.224609375t-1.630859375-0.244140625t-0.8984375-0.576171875t-0.380859375-0.68359375t-0.078125-0.56640625l0-13.80859375q0-0.2734375-0.078125-0.556640625t-0.234375-0.517578125t-0.390625-0.380859375t-0.546875-0.146484375q-0.52734375,0-1.03515625,0.302734375t-0.947265625,0.693359375t-0.76171875,0.78125t-0.458984375,0.5859375l0,13.0859375q0,0.25390625-0.078125,0.60546875t-0.380859375,0.6640625t-0.8984375,0.537109375t-1.630859375,0.224609375t-1.630859375-0.244140625t-0.908203125-0.576171875t-0.390625-0.68359375t-0.078125-0.56640625l0-15.078125q0-0.56640625-0.263671875-0.986328125t-0.888671875-0.419921875q-0.33203125,0-0.56640625,0.1171875t-0.5078125,0.33203125l-0.41015625-0.48828125q0.44921875-0.37109375,1.005859375-0.732421875t1.201171875-0.634765625t1.38671875-0.44921875t1.5625-0.17578125q1.26953125,0,1.97265625,0.419921875t1.03515625,1.005859375t0.400390625,1.220703125t0.068359375,1.064453125q0.91796875-1.03515625,1.97265625-1.85546875q0.4296875-0.3515625,0.947265625-0.68359375t1.064453125-0.595703125t1.1328125-0.419921875t1.171875-0.15625q1.1328125,0,1.93359375,0.41015625t1.2890625,0.986328125t0.712890625,1.2109375t0.224609375,1.103515625q0.9375-1.03515625,1.97265625-1.85546875q0.4296875-0.3515625,0.9375-0.68359375t1.064453125-0.595703125t1.1328125-0.419921875t1.162109375-0.15625q1.1328125,0,1.93359375,0.419921875t1.2890625,1.103515625t0.712890625,1.54296875t0.224609375,1.71875l0,12.08984375q0,0.17578125,0.01953125,0.380859375t0.09765625,0.390625t0.244140625,0.302734375t0.439453125,0.1171875q0.37109375,0,0.6640625-0.263671875t0.546875-0.537109375l0.46875,0.41015625q-0.2734375,0.41015625-0.72265625,0.908203125t-1.064453125,0.947265625t-1.42578125,0.751953125t-1.826171875,0.302734375q-0.859375,0-1.494140625-0.224609375t-1.07421875-0.60546875t-0.654296875-0.8984375t-0.21484375-1.103515625l0-13.046875q0-0.2734375-0.078125-0.556640625t-0.224609375-0.517578125t-0.380859375-0.380859375t-0.546875-0.146484375q-0.52734375,0-1.044921875,0.302734375t-0.95703125,0.693359375t-0.751953125,0.78125t-0.44921875,0.5859375l0,13.0859375z M109.51171875,46.2109375q0,0.25390625-0.087890625,0.615234375t-0.41015625,0.68359375t-0.927734375,0.546875t-1.640625,0.224609375t-1.62109375-0.244140625t-0.87890625-0.576171875t-0.361328125-0.68359375t-0.068359375-0.56640625l0-15.078125q0-0.56640625-0.263671875-0.986328125t-0.888671875-0.419921875q-0.33203125,0-0.56640625,0.1171875t-0.5078125,0.33203125l-0.41015625-0.48828125q0.44921875-0.37109375,1.005859375-0.732421875t1.201171875-0.634765625t1.38671875-0.44921875t1.5625-0.17578125q1.26953125,0,1.97265625,0.341796875t1.03515625,0.83984375t0.400390625,1.064453125t0.068359375,0.99609375l0,15.2734375z M102.91015625,23.2421875q0-0.546875,0.244140625-1.044921875t0.68359375-0.869140625t1.015625-0.5859375t1.259765625-0.21484375q0.6640625,0,1.240234375,0.21484375t1.005859375,0.5859375t0.673828125,0.869140625t0.244140625,1.044921875q0,0.56640625-0.244140625,1.0546875t-0.673828125,0.849609375t-1.005859375,0.576171875t-1.240234375,0.21484375q-0.68359375,0-1.259765625-0.21484375t-1.015625-0.576171875t-0.68359375-0.849609375t-0.244140625-1.0546875z M120.5078125,50.80078125q0.78125,0,1.54296875-0.283203125t1.357421875-0.9375t0.966796875-1.708984375t0.37109375-2.578125q0-1.640625-0.810546875-3.18359375t-2.03125-3.037109375t-2.63671875-2.96875t-2.63671875-3.0078125t-2.03125-3.1640625t-0.810546875-3.408203125t0.654296875-3.212890625t1.77734375-2.44140625t2.6171875-1.552734375t3.193359375-0.546875q1.81640625,0,3.232421875,0.380859375t2.40234375,1.03515625t1.494140625,1.54296875t0.5078125,1.884765625q0,0.46875-0.13671875,0.966796875t-0.4296875,0.908203125t-0.7421875,0.68359375t-1.0546875,0.2734375q-0.72265625,0-1.064453125-0.439453125t-0.5078125-1.083984375t-0.283203125-1.416015625t-0.37109375-1.416015625t-0.76171875-1.083984375t-1.484375-0.439453125q-0.52734375,0-1.044921875,0.234375t-0.9375,0.712890625t-0.673828125,1.220703125t-0.25390625,1.7578125q0,1.171875,0.48828125,2.28515625t1.2890625,2.197265625t1.826171875,2.16796875t2.08984375,2.1875t2.08984375,2.265625t1.826171875,2.412109375t1.2890625,2.6171875t0.48828125,2.87109375q0,2.20703125-0.849609375,3.935546875t-2.3046875,2.91015625t-3.408203125,1.806640625t-4.16015625,0.625q-1.9921875,0-3.525390625-0.498046875t-2.587890625-1.318359375t-1.591796875-1.865234375t-0.537109375-2.158203125q0-0.46875,0.146484375-1.005859375t0.4296875-0.986328125t0.712890625-0.751953125t0.99609375-0.302734375q0.5859375,0,0.947265625,0.29296875t0.576171875,0.78125t0.3515625,1.11328125t0.29296875,1.26953125t0.390625,1.26953125t0.64453125,1.11328125t1.0546875,0.78125t1.62109375,0.29296875z M133.75,37.96875q0-2.55859375,0.7421875-4.482421875t1.982421875-3.212890625t2.880859375-1.93359375t3.4375-0.64453125t3.4375,0.595703125t2.880859375,1.826171875t1.982421875,3.115234375t0.7421875,4.462890625q0,2.55859375-0.7421875,4.53125t-1.982421875,3.3203125t-2.880859375,2.041015625t-3.4375,0.693359375t-3.4375-0.654296875t-2.880859375-1.943359375t-1.982421875-3.22265625t-0.7421875-4.4921875z M145.76171875,37.7734375q0-1.5625-0.107421875-3.017578125t-0.419921875-2.587890625t-0.8984375-1.806640625t-1.54296875-0.673828125t-1.54296875,0.712890625t-0.8984375,1.875t-0.41015625,2.646484375t-0.09765625,3.046875t0.09765625,3.056640625t0.41015625,2.666015625t0.8984375,1.884765625t1.54296875,0.712890625t1.54296875-0.7421875t0.8984375-1.953125t0.419921875-2.734375t0.107421875-3.0859375z M165.1171875,18.92578125q-0.546875,0-1.03515625,0.234375t-0.849609375,0.751953125t-0.576171875,1.318359375t-0.21484375,1.93359375l0,4.8046875l4.27734375,0l0,1.40625l-4.27734375,0l0,15.390625q0,2.65625-0.693359375,4.90234375t-2.099609375,3.876953125t-3.515625,2.548828125t-4.921875,0.91796875q-0.99609375,0-1.9140625-0.166015625t-1.62109375-0.458984375t-1.123046875-0.693359375t-0.419921875-0.888671875q0-0.3515625,0.09765625-0.712890625t0.29296875-0.654296875t0.478515625-0.478515625t0.654296875-0.185546875q0.21484375,0,0.380859375,0.21484375t0.341796875,0.52734375t0.400390625,0.693359375t0.576171875,0.693359375t0.869140625,0.52734375t1.259765625,0.21484375q0.99609375,0,1.7578125-0.400390625t1.30859375-1.103515625t0.91796875-1.66015625t0.5859375-2.05078125t0.302734375-2.28515625t0.087890625-2.3828125l0-16.38671875l-3.59375,0l0-1.40625l3.59375,0l0-2.28515625q0-1.71875,0.419921875-2.998046875t1.11328125-2.177734375t1.572265625-1.46484375t1.787109375-0.8984375t1.767578125-0.44921875t1.50390625-0.1171875q1.38671875,0,2.4609375,0.205078125t1.796875,0.546875t1.09375,0.791015625t0.37109375,0.91796875q0,0.3515625-0.107421875,0.712890625t-0.302734375,0.6640625t-0.478515625,0.48828125t-0.634765625,0.185546875q-0.21484375,0-0.390625-0.234375t-0.37109375-0.5859375t-0.4296875-0.76171875t-0.576171875-0.76171875t-0.810546875-0.5859375t-1.11328125-0.234375z M174.82421875,29.375l0,14.43359375q0,1.03515625,0.390625,1.435546875t1.07421875,0.400390625q0.52734375,0,0.9375-0.29296875t0.703125-0.6640625q0.3515625-0.41015625,0.60546875-0.95703125l0.60546875,0.2734375q-0.29296875,0.625-0.693359375,1.3671875t-1.064453125,1.376953125t-1.669921875,1.064453125t-2.529296875,0.4296875q-0.859375,0-1.650390625-0.25390625t-1.40625-0.80078125t-0.986328125-1.3671875t-0.37109375-1.97265625l0-14.47265625l-2.1875,0l0-1.40625q0.546875,0,1.5234375-0.283203125t2.001953125-0.947265625t1.904296875-1.77734375t1.25-2.75390625l1.5625,0l0,5.76171875l3.18359375,0q1.5625,0,1.5625-0.52734375q0-0.1953125-0.1953125-0.263671875t-0.439453125-0.17578125t-0.439453125-0.302734375t-0.1953125-0.64453125q0-0.546875,0.341796875-0.859375t0.888671875-0.3125q0.3515625,0,0.615234375,0.146484375t0.439453125,0.390625t0.263671875,0.556640625t0.087890625,0.625q0,1.26953125-0.732421875,2.021484375t-2.353515625,0.751953125l-3.02734375,0z"/>
    <rect x="-3.0000000298023224" y="14.578125" width="186.9375" height="45.43359375" fill="transparent" pointer-events="all"/>
  </g>
  <g data-name="slogan" fill="url(#gradient-1)" data="id:335"
     transform="translate(123.53350661612528,85.74619636530198) scale(0.3183231476015532)">
    <path d="M11.96,21.52l-0.48,0q-3.56,0-5.54,1.78t-1.98,6.3q0,1.48,0.28,2.06t0.28,0.66q-2.16,0-3.22-0.9t-1.06-2.98q0-2.84,1.4-5.18t4.46-3.78t7.78-1.44q2.64,0,5.68,0.48q2.56,0.44,4.56,0.44q2.56,0,4.64-0.84q-0.08,2.6-1.32,3.84t-3.68,1.24q-1.28,0-2.56-0.2t-3.64-0.68l-5.52,25.68l-5.76,0z M20.24,46.68q-1.52-1.56-1.52-4.88q0-2.96,1.18-6.22t3.52-5.52t5.58-2.26q1.64,0,2.44,0.56t0.8,1.48l0,0.28l0.44-2.12l5.76,0l-2.88,13.6q-0.16,0.6-0.16,1.28q0,1.72,1.64,1.72q1.12,0,1.94-1.04t1.3-2.72l1.68,0q-1.48,4.32-3.66,5.86t-4.38,1.54q-1.68,0-2.7-0.94t-1.22-2.74q-1.16,1.64-2.58,2.66t-3.38,1.02q-2.28,0-3.8-1.56z M28.62,43.42q0.98-0.94,1.34-2.58l1.92-9.04q0-0.52-0.4-1.02t-1.24-0.5q-1.6,0-2.88,1.86t-2,4.48t-0.72,4.62t0.58,2.56t1.42,0.56q1,0,1.98-0.94z M44.72,24.92q-0.92-0.92-0.92-2.24t0.92-2.26t2.24-0.94t2.26,0.94t0.94,2.26t-0.94,2.24t-2.26,0.92t-2.24-0.92z M41.14,47.04q-1.18-1.2-1.18-3.6q0-1,0.32-2.6l2.72-12.84l5.76,0l-2.88,13.6q-0.16,0.6-0.16,1.28q0,0.8,0.38,1.14t1.26,0.34q1.16,0,2.16-0.98t1.44-2.54l1.68,0q-1.48,4.32-3.8,5.86t-4.6,1.54q-1.92,0-3.1-1.2z M51.82,47.04q-1.18-1.2-1.18-3.6q0-1,0.32-2.6l4.28-20.04l5.92-0.8l-4.6,21.6q-0.16,0.6-0.16,1.28q0,0.8,0.38,1.14t1.26,0.34q1.16,0,2.16-0.98t1.44-2.54l1.68,0q-1.48,4.32-3.8,5.86t-4.6,1.54q-1.92,0-3.1-1.2z M62.8,46.64q-1.72-1.52-1.72-4.8q0-2.72,1.12-6.04t3.6-5.74t6.24-2.42q5.12,0,5.12,6.4l0,0.04q0.12,0.04,0.44,0.04q1.32,0,3.04-0.7t3.12-1.7l0.36,1.08q-1.16,1.24-3.02,2.1t-4.06,1.22q-0.32,3.64-1.64,6.36t-3.4,4.2t-4.52,1.48q-2.96,0-4.68-1.52z M71,43.46q0.96-1.1,1.68-3t1.04-4.22q-1.08-0.24-1.08-1.68q0-1.64,1.24-2.16q-0.08-1.32-0.4-1.82t-1.12-0.5q-1.32,0-2.56,1.92t-2,4.6t-0.76,4.72q0,1.92,0.44,2.58t1.6,0.66q0.96,0,1.92-1.1z M81.92,28l5.76,0l-0.52,2.48q1.36-1.2,2.46-1.84t2.38-0.64t2.02,0.88t0.74,2.12q0,1.16-0.76,2.04t-2.12,0.88q-0.88,0-1.18-0.42t-0.46-1.22q-0.12-0.52-0.24-0.76t-0.44-0.24q-0.84,0-1.42,0.34t-1.5,1.18l-3.2,15.2l-5.76,0z M95.36,46.7q-1.64-1.54-1.64-4.82q0-2.76,1.08-6.08t3.52-5.74t6.2-2.42q4.4,0,4.4,3.84q0,2.24-1.28,4.12t-3.4,3.02t-4.52,1.3q-0.08,1.2-0.08,1.6q0,1.96,0.68,2.66t2.2,0.7q2.16,0,3.7-1t3.38-3.04l1.36,0q-4.44,7.4-11,7.4q-2.96,0-4.6-1.54z M102.86,36.96q1.34-0.96,2.16-2.44t0.82-3.12t-1-1.64q-1.44,0-2.82,2.52t-1.98,5.72q1.48-0.08,2.82-1.04z M110.6,46.68q-1.52-1.56-1.52-4.88q0-2.96,1.18-6.22t3.52-5.52t5.58-2.26q1.64,0,2.44,0.56t0.8,1.48l0,0.16l1.96-9.2l5.92-0.8l-4.6,21.6q-0.16,0.6-0.16,1.28q0,0.8,0.38,1.14t1.26,0.34q1.12,0,1.94-0.96t1.3-2.56l1.68,0q-2.44,7.16-8.04,7.16q-1.64,0-2.66-0.88t-1.26-2.56q-1.04,1.6-2.5,2.64t-3.42,1.04q-2.28,0-3.8-1.56z M118.94,43.48q0.98-0.88,1.34-2.44l0-0.2l1.96-9.16q-0.36-1.4-1.64-1.4q-1.6,0-2.88,1.86t-2,4.48t-0.72,4.62t0.58,2.56t1.42,0.56q0.96,0,1.94-0.88z  M151.24,21.52l-0.48,0q-3.56,0-5.54,1.78t-1.98,6.3q0,1.48,0.28,2.06t0.28,0.66q-2.16,0-3.22-0.9t-1.06-2.98q0-2.84,1.4-5.18t4.46-3.78t7.78-1.44q2.64,0,5.68,0.48q2.56,0.44,4.56,0.44q2.56,0,4.64-0.84q-0.08,2.6-1.32,3.84t-3.68,1.24q-1.28,0-2.56-0.2t-3.64-0.68l-5.52,25.68l-5.76,0z M159.64,46.7q-1.64-1.54-1.64-4.82q0-2.76,1.08-6.08t3.52-5.74t6.2-2.42q4.4,0,4.4,3.84q0,2.24-1.28,4.12t-3.4,3.02t-4.52,1.3q-0.08,1.2-0.08,1.6q0,1.96,0.68,2.66t2.2,0.7q2.16,0,3.7-1t3.38-3.04l1.36,0q-4.44,7.4-11,7.4q-2.96,0-4.6-1.54z M167.14,36.96q1.34-0.96,2.16-2.44t0.82-3.12t-1-1.64q-1.44,0-2.82,2.52t-1.98,5.72q1.48-0.08,2.82-1.04z M175,46.7q-1.64-1.54-1.64-4.82q0-2.76,1.1-6.08t3.52-5.74t6.14-2.42q2.4,0,3.42,1.04t1.02,2.64q0,1.4-0.6,2.16t-1.52,0.76q-0.68,0-1.4-0.48q0.48-1.32,0.48-2.36q0-0.76-0.28-1.2t-0.84-0.44q-1.2,0-2.4,1.96t-1.96,4.76t-0.76,5.04q0,1.96,0.68,2.66t2.2,0.7q2.16,0,3.7-1t3.38-3.04l1.36,0q-4.44,7.4-11,7.4q-2.96,0-4.6-1.54z M200.1,46.94q-1.14-1.3-1.14-3.22q0-0.84,0.2-1.9t0.42-2.06t0.3-1.28q0.32-1.4,0.6-2.76t0.28-2.2q0-2.04-1.44-2.04q-1.04,0-1.84,1.02t-1.28,2.66l-2.72,12.84l-5.76,0l5.8-27.2l5.92-0.8l-2.16,10.08q2-2.24,4.68-2.24q2.04,0,3.24,1.12t1.2,3.4q0,1.16-0.28,2.58t-0.8,3.46q-0.32,1.24-0.58,2.42t-0.26,1.86q0,0.8,0.36,1.24t1.24,0.44q1.2,0,1.92-0.86t1.44-2.66l1.68,0q-1.48,4.4-3.42,5.9t-4.02,1.5q-2.44,0-3.58-1.3z M220.3,46.94q-1.14-1.3-1.14-3.22q0-0.84,0.2-1.9t0.42-2.06t0.3-1.28q0.32-1.4,0.6-2.76t0.28-2.2q0-2.04-1.44-2.04q-1.04,0-1.84,1.02t-1.28,2.66l-2.72,12.84l-5.76,0l4.24-20l5.76,0l-0.44,2.08q2-2.24,4.68-2.24q2.04,0,3.24,1.12t1.2,3.4q0,1.16-0.28,2.58t-0.8,3.46q-0.32,1.24-0.58,2.42t-0.26,1.86q0,0.8,0.36,1.24t1.24,0.44q1.2,0,1.92-0.86t1.44-2.66l1.68,0q-1.48,4.4-3.42,5.9t-4.02,1.5q-2.44,0-3.58-1.3z M230.8,46.64q-1.72-1.52-1.72-4.8q0-2.72,1.12-6.04t3.6-5.74t6.24-2.42q5.12,0,5.12,6.4l0,0.04q0.12,0.04,0.44,0.04q1.32,0,3.04-0.7t3.12-1.7l0.36,1.08q-1.16,1.24-3.02,2.1t-4.06,1.22q-0.32,3.64-1.64,6.36t-3.4,4.2t-4.52,1.48q-2.96,0-4.68-1.52z M239,43.46q0.96-1.1,1.68-3t1.04-4.22q-1.08-0.24-1.08-1.68q0-1.64,1.24-2.16q-0.08-1.32-0.4-1.82t-1.12-0.5q-1.32,0-2.56,1.92t-2,4.6t-0.76,4.72q0,1.92,0.44,2.58t1.6,0.66q0.96,0,1.92-1.1z M248.06,47.04q-1.18-1.2-1.18-3.6q0-1,0.32-2.6l4.28-20.04l5.92-0.8l-4.6,21.6q-0.16,0.6-0.16,1.28q0,0.8,0.38,1.14t1.26,0.34q1.16,0,2.16-0.98t1.44-2.54l1.68,0q-1.48,4.32-3.8,5.86t-4.6,1.54q-1.92,0-3.1-1.2z M259.04,46.64q-1.72-1.52-1.72-4.8q0-2.72,1.12-6.04t3.6-5.74t6.24-2.42q5.12,0,5.12,6.4l0,0.04q0.12,0.04,0.44,0.04q1.32,0,3.04-0.7t3.12-1.7l0.36,1.08q-1.16,1.24-3.02,2.1t-4.06,1.22q-0.32,3.64-1.64,6.36t-3.4,4.2t-4.52,1.48q-2.96,0-4.68-1.52z M267.24,43.46q0.96-1.1,1.68-3t1.04-4.22q-1.08-0.24-1.08-1.68q0-1.64,1.24-2.16q-0.08-1.32-0.4-1.82t-1.12-0.5q-1.32,0-2.56,1.92t-2,4.6t-0.76,4.72q0,1.92,0.44,2.58t1.6,0.66q0.96,0,1.92-1.1z M279.32,57q-1.28-1-1.28-2.88q0-2.28,1.84-3.66t4.68-2.3l0.48-2.12q-2.04,2.2-4.8,2.2q-2.28,0-3.8-1.56t-1.52-4.88q0-2.96,1.18-6.22t3.52-5.52t5.58-2.26q1.64,0,2.44,0.56t0.8,1.48l0,0.24l0.44-2.08l5.76,0l-3.96,18.56q1.92-0.64,3.08-1.92t1.96-3.8l1.68,0q-1.08,3.56-2.92,5.22t-4.16,2.26l-0.6,2.88q-0.8,3.88-2.76,5.34t-4.44,1.46q-1.92,0-3.2-1z M284.72,43.52q0.96-0.84,1.32-2.28l2.04-9.48q0-0.48-0.4-0.98t-1.24-0.5q-1.6,0-2.88,1.86t-2,4.48t-0.72,4.62t0.58,2.56t1.42,0.56q0.92,0,1.88-0.84z M282.92,53.96q0.64-0.92,1-2.64l0.24-1.16q-3.92,1.44-3.92,3.4q0,0.52,0.36,0.92t1,0.4q0.68,0,1.32-0.92z M298.76,57q-1.28-1-1.28-2.88q0-2.28,1.84-3.66t4.68-2.3l0.48-2.16q-1.16,1.28-2.36,1.76t-2.44,0.48q-1.92,0-3.1-1.2t-1.18-3.6q0-1,0.32-2.6l2.72-12.84l5.76,0l-2.88,13.6q-0.12,0.48-0.12,1q0,1.76,1.2,1.76q1.04,0,1.84-0.9t1.28-2.38l2.8-13.08l5.76,0l-3.96,18.56q1.92-0.64,3.08-1.92t1.96-3.8l1.68,0q-1.08,3.56-2.92,5.22t-4.16,2.26l-0.6,2.88q-0.8,3.88-2.76,5.34t-4.44,1.46q-1.92,0-3.2-1z M302.36,53.96q0.64-0.92,1-2.64l0.24-1.16q-3.92,1.44-3.92,3.4q0,0.52,0.36,0.92t1,0.4q0.68,0,1.32-0.92z  M324.7,47.04q-1.18-1.2-1.18-3.6q0-1,0.32-2.6l2.4-11.24l-1.32,0l0.32-1.6l1.32,0l1.2-5.52l5.92-0.8l-1.36,6.32l2.4,0l-0.32,1.6l-2.4,0l-2.56,12q-0.16,0.6-0.16,1.28q0,0.8,0.38,1.14t1.26,0.34q1.16,0,2.16-0.98t1.44-2.54l1.68,0q-1.48,4.32-3.8,5.86t-4.6,1.54q-1.92,0-3.1-1.2z M335.68,46.64q-1.72-1.52-1.72-4.8q0-2.72,1.12-6.04t3.6-5.74t6.24-2.42q5.12,0,5.12,6.4l0,0.04q0.12,0.04,0.44,0.04q1.32,0,3.04-0.7t3.12-1.7l0.36,1.08q-1.16,1.24-3.02,2.1t-4.06,1.22q-0.32,3.64-1.64,6.36t-3.4,4.2t-4.52,1.48q-2.96,0-4.68-1.52z M343.88,43.46q0.96-1.1,1.68-3t1.04-4.22q-1.08-0.24-1.08-1.68q0-1.64,1.24-2.16q-0.08-1.32-0.4-1.82t-1.12-0.5q-1.32,0-2.56,1.92t-2,4.6t-0.76,4.72q0,1.92,0.44,2.58t1.6,0.66q0.96,0,1.92-1.1z  M370.6,46.4l-0.32,1.6l-5.76,0l5.44-25.44l5.92-0.8l-4.8,22.44q1.12,0.8,2.28,0.8q2.28,0,4.02-2.64t2.7-6.72t0.96-8.24q0-3.92-1.54-5.74t-4.3-1.82q-3,0-5.38,1.18t-3.74,3.38t-1.36,5.16q0,1.48,0.28,2.06t0.28,0.66q-2.08,0-3.18-0.88t-1.1-2.84q0-2.72,2.04-5.16t5.46-3.92t7.38-1.48q5.48,0,8.08,3.24t2.6,8.28q0,4.56-1.54,8.98t-4.1,7.22t-5.44,2.8q-2.4,0-4.88-2.12z M390,28l5.76,0l-0.52,2.48q1.36-1.2,2.46-1.84t2.38-0.64t2.02,0.88t0.74,2.12q0,1.16-0.76,2.04t-2.12,0.88q-0.88,0-1.18-0.42t-0.46-1.22q-0.12-0.52-0.24-0.76t-0.44-0.24q-0.84,0-1.42,0.34t-1.5,1.18l-3.2,15.2l-5.76,0z M406.76,24.92q-0.92-0.92-0.92-2.24t0.92-2.26t2.24-0.94t2.26,0.94t0.94,2.26t-0.94,2.24t-2.26,0.92t-2.24-0.92z M403.18,47.04q-1.18-1.2-1.18-3.6q0-1,0.32-2.6l2.72-12.84l5.76,0l-2.88,13.6q-0.16,0.6-0.16,1.28q0,0.8,0.38,1.14t1.26,0.34q1.16,0,2.16-0.98t1.44-2.54l1.68,0q-1.48,4.32-3.8,5.86t-4.6,1.54q-1.92,0-3.1-1.2z M413.94,47.06q-1.3-1.18-1.3-3.54q0-0.96,0.2-1.92l2.88-13.6l5.76,0l-2.88,13.6q-0.2,1-0.2,1.44q0,1.32,1.36,1.32q1.84,0,3.42-2.32t2.54-5.52t0.96-5.52q-0.08,0.2-0.52,0.3t-0.76,0.1q-0.68,0-1.06-0.64t-0.38-1.4q0-0.96,0.62-1.56t1.86-0.6q1.32,0,1.92,0.98t0.6,2.5q0,3.6-1.24,7.7t-3.8,6.98t-6.36,2.88q-2.32,0-3.62-1.18z M430.68,46.7q-1.64-1.54-1.64-4.82q0-2.76,1.08-6.08t3.52-5.74t6.2-2.42q4.4,0,4.4,3.84q0,2.24-1.28,4.12t-3.4,3.02t-4.52,1.3q-0.08,1.2-0.08,1.6q0,1.96,0.68,2.66t2.2,0.7q2.16,0,3.7-1t3.38-3.04l1.36,0q-4.44,7.4-11,7.4q-2.96,0-4.6-1.54z M438.18,36.96q1.34-0.96,2.16-2.44t0.82-3.12t-1-1.64q-1.44,0-2.82,2.52t-1.98,5.72q1.48-0.08,2.82-1.04z  M467.36,35.68l-3.84-15q-2.84,1.08-4.4,3.34t-1.56,5.54q0,1.48,0.28,2.06t0.28,0.66q-2.16,0-3.22-0.9t-1.06-2.98q0-2.56,2.1-4.98t5.38-3.92t6.56-1.5q0.56,0,1.6,0.08l3.48,14.32l5.92-14.2l2.64,0l-7.76,17.48l-2.64,12.32l-6.4,0z M479.56,46.64q-1.72-1.52-1.72-4.8q0-2.72,1.12-6.04t3.6-5.74t6.24-2.42q5.12,0,5.12,6.4l0,0.04q0.12,0.04,0.44,0.04q1.32,0,3.04-0.7t3.12-1.7l0.36,1.08q-1.16,1.24-3.02,2.1t-4.06,1.22q-0.32,3.64-1.64,6.36t-3.4,4.2t-4.52,1.48q-2.96,0-4.68-1.52z M487.76,43.46q0.96-1.1,1.68-3t1.04-4.22q-1.08-0.24-1.08-1.68q0-1.64,1.24-2.16q-0.08-1.32-0.4-1.82t-1.12-0.5q-1.32,0-2.56,1.92t-2,4.6t-0.76,4.72q0,1.92,0.44,2.58t1.6,0.66q0.96,0,1.92-1.1z M496.82,47.04q-1.18-1.2-1.18-3.6q0-1,0.32-2.6l2.72-12.84l5.76,0l-2.88,13.6q-0.12,0.6-0.12,1.12q0,1.64,1.2,1.64q1.12,0,1.92-0.94t1.28-2.58l2.72-12.84l5.76,0l-2.88,13.6q-0.16,0.6-0.16,1.28q0,0.8,0.38,1.14t1.26,0.34q1.12,0,1.94-0.96t1.3-2.56l1.68,0q-1.48,4.32-3.66,5.86t-4.38,1.54q-1.72,0-2.74-0.96t-1.22-2.84q-1.36,2.2-2.86,3t-3.06,0.8q-1.92,0-3.1-1.2z M518.88,28l5.76,0l-0.52,2.48q1.36-1.2,2.46-1.84t2.38-0.64t2.02,0.88t0.74,2.12q0,1.16-0.76,2.04t-2.12,0.88q-0.88,0-1.18-0.42t-0.46-1.22q-0.12-0.52-0.24-0.76t-0.44-0.24q-0.84,0-1.42,0.34t-1.5,1.18l-3.2,15.2l-5.76,0z  M545.24,47.84q-1.92-0.88-2.96-2.46t-1.04-3.66q0-1.76,0.74-3.2t2-2.28t2.78-0.84q1.4,0,2.36,0.7t1.2,1.94q-2.08,0-3.32,1.1t-1.24,2.98q0,1.72,1.04,2.76t2.76,1.04q2.12,0,3.5-1.42t1.38-3.58q0-1.88-1.04-3.56t-3.12-4.08q-2.16-2.48-3.26-4.26t-1.1-3.9q0-2.08,1.16-3.74t3.2-2.62t4.6-0.96q3.24,0,5.18,1.52t1.94,4.08q0,1.68-0.84,2.72t-2.2,1.04q-1.52,0-2.44-1.24q0.76-0.56,1.2-1.48t0.44-1.92q0-1.28-0.76-2.04t-2.08-0.76q-1.6,0-2.62,1.14t-1.02,2.9q0,1.6,0.92,2.98t2.88,3.54q1.6,1.72,2.58,2.96t1.68,2.86t0.7,3.5q0,2.56-1.42,4.64t-3.88,3.28t-5.46,1.2q-2.52,0-4.44-0.88z M563.54,47.04q-1.18-1.2-1.18-3.6q0-1,0.32-2.6l2.72-12.84l5.76,0l-2.88,13.6q-0.12,0.6-0.12,1.12q0,1.64,1.2,1.64q1.12,0,1.92-0.94t1.28-2.58l2.72-12.84l5.76,0l-2.88,13.6q-0.16,0.6-0.16,1.28q0,0.8,0.38,1.14t1.26,0.34q1.12,0,1.94-0.96t1.3-2.56l1.68,0q-1.48,4.32-3.66,5.86t-4.38,1.54q-1.72,0-2.74-0.96t-1.22-2.84q-1.36,2.2-2.86,3t-3.06,0.8q-1.92,0-3.1-1.2z M584,46.7q-1.64-1.54-1.64-4.82q0-2.76,1.1-6.08t3.52-5.74t6.14-2.42q2.4,0,3.42,1.04t1.02,2.64q0,1.4-0.6,2.16t-1.52,0.76q-0.68,0-1.4-0.48q0.48-1.32,0.48-2.36q0-0.76-0.28-1.2t-0.84-0.44q-1.2,0-2.4,1.96t-1.96,4.76t-0.76,5.04q0,1.96,0.68,2.66t2.2,0.7q2.16,0,3.7-1t3.38-3.04l1.36,0q-4.44,7.4-11,7.4q-2.96,0-4.6-1.54z M599.36,46.7q-1.64-1.54-1.64-4.82q0-2.76,1.1-6.08t3.52-5.74t6.14-2.42q2.4,0,3.42,1.04t1.02,2.64q0,1.4-0.6,2.16t-1.52,0.76q-0.68,0-1.4-0.48q0.48-1.32,0.48-2.36q0-0.76-0.28-1.2t-0.84-0.44q-1.2,0-2.4,1.96t-1.96,4.76t-0.76,5.04q0,1.96,0.68,2.66t2.2,0.7q2.16,0,3.7-1t3.38-3.04l1.36,0q-4.44,7.4-11,7.4q-2.96,0-4.6-1.54z M614.72,46.7q-1.64-1.54-1.64-4.82q0-2.76,1.08-6.08t3.52-5.74t6.2-2.42q4.4,0,4.4,3.84q0,2.24-1.28,4.12t-3.4,3.02t-4.52,1.3q-0.08,1.2-0.08,1.6q0,1.96,0.68,2.66t2.2,0.7q2.16,0,3.7-1t3.38-3.04l1.36,0q-4.44,7.4-11,7.4q-2.96,0-4.6-1.54z M622.22,36.96q1.34-0.96,2.16-2.44t0.82-3.12t-1-1.64q-1.44,0-2.82,2.52t-1.98,5.72q1.48-0.08,2.82-1.04z M630.28,47.5q-1.32-0.74-1.96-1.92t-0.64-2.46q0-1.32,0.62-2.3t1.5-1.42q1.56-2.8,2.72-5.66t2.2-6.18l5.92-0.8q0.2,5.12,0.68,11.08q0.2,2.4,0.2,3.48q0,0.92-0.16,1.52q1.88-1.08,2.88-2l1.68,0q-2.56,2.96-6.12,5q-1.16,1.24-2.86,1.82t-3.42,0.58q-1.92,0-3.24-0.74z M634.72,44.2q1-0.88,1-2.84q0-1.2-0.24-3.36q-0.4-4.56-0.52-6.12q-0.96,3.16-3.24,7.56q0.92,0.48,0.92,1.4q0,0.76-0.5,1.36t-1.26,0.6q-0.84,0-1.08-0.52q0,1.44,0.58,2.12t1.86,0.68q1.48,0,2.48-0.88z M645.56,47.5q-1.32-0.74-1.96-1.92t-0.64-2.46q0-1.32,0.62-2.3t1.5-1.42q1.56-2.8,2.72-5.66t2.2-6.18l5.92-0.8q0.2,5.12,0.68,11.08q0.2,2.4,0.2,3.48q0,0.92-0.16,1.52q1.88-1.08,2.88-2l1.68,0q-2.56,2.96-6.12,5q-1.16,1.24-2.86,1.82t-3.42,0.58q-1.92,0-3.24-0.74z M650,44.2q1-0.88,1-2.84q0-1.2-0.24-3.36q-0.4-4.56-0.52-6.12q-0.96,3.16-3.24,7.56q0.92,0.48,0.92,1.4q0,0.76-0.5,1.36t-1.26,0.6q-0.84,0-1.08-0.52q0,1.44,0.58,2.12t1.86,0.68q1.48,0,2.48-0.88z"/>
    <rect x="-2.759999990463257" y="14.799999237060547" width="666.9599609375" height="46.20000076293945" fill="transparent" pointer-events="all"/>
  </g>
</svg>
