<svg xmlns="http://www.w3.org/2000/svg" xmlns:xlink="http://www.w3.org/1999/xlink"
     width="150" height="150"
     viewBox="0 0 150 150">
    <defs>
        <linearGradient id="gradient-1" x1="49.99999999999999%" y1="0%" x2="50.00000000000001%" y2="100%">
            <stop offset="0.00" stop-color="#CBACF9"/>
            <stop offset="1.00" stop-color="#6078eb"/>
        </linearGradient>
    </defs>
    <rect data-name="background" width="100%" height="100%" fill="transparent"/>
    <g data-name="icon" fill="url(#gradient-1)" data="id:5393605"
       transform="translate(10.726324938609038,15.4213728513163) scale(0.16982334151879494)">
        <g>
            <g>
                <path d="M259.499,253.159c22.283-8.737,36.948-30.527,36.498-54.244c-0.427-22.543-14.046-42.519-34.858-51.397    C198.353,148.251,147.5,199.544,147.5,262.5c0,50.245,32.393,93.061,77.389,108.677c-11.445-14.953-16.752-32.593-15.784-50.376    C210.75,290.526,230.528,263.984,259.499,253.159z M257.5,187.75c5.508,0,10,4.487,10,10c0,5.508-4.488,10-10,10    c-5.508,0-10-4.487-10-10C247.5,192.24,251.987,187.75,257.5,187.75z"/>
                <path d="M142.273,323.87L15.125,375.749l134.061,134.062l53.426-126.346    C176.69,370.579,155.465,349.611,142.273,323.87z M143.175,404.235c-3.906,3.905-10.237,3.904-14.143,0l-6.982-6.982    c-3.905-3.905-3.905-10.237,0-14.143c3.905-3.904,10.237-3.904,14.143,0l6.982,6.982    C147.08,393.998,147.08,400.33,143.175,404.235z"/>
                <path d="M382.899,201.476l126.961-52.24L375.77,15.145l-52.535,126.812    C348.887,154.934,369.862,175.858,382.899,201.476z M382.963,120.765c3.906-3.905,10.236-3.905,14.143,0l6.982,6.982    c3.905,3.905,3.905,10.237,0,14.143c-3.906,3.905-10.236,3.905-14.143,0l-6.982-6.982    C379.058,131.002,379.058,124.67,382.963,120.765z"/>
                <path d="M324.118,382.597l51.62,127.289L509.82,375.804l-126.477-53.171    C370.489,348.359,349.665,369.437,324.118,382.597z M390.662,382.394c3.906-3.904,10.236-3.904,14.143,0    c3.905,3.905,3.905,10.237,0,14.143l-6.983,6.983c-3.907,3.905-10.236,3.904-14.143,0c-3.905-3.905-3.905-10.237,0-14.143    L390.662,382.394z"/>
                <path d="M201.726,141.976L149.214,15.161L15.163,149.212l126.667,52.807    C154.84,176.168,175.911,155.046,201.726,141.976z M121.333,142.605c-3.905-3.905-3.905-10.237,0-14.142l6.983-6.982    c3.906-3.904,10.237-3.905,14.142,0c3.905,3.905,3.905,10.237,0,14.142l-6.983,6.982    C131.57,146.51,125.239,146.511,121.333,142.605z"/>
                <path d="M264.91,377.469c62.302-1.288,112.59-52.364,112.59-114.969c0-49.998-32.075-92.637-76.726-108.443    c9.406,12.603,14.907,28.031,15.218,44.479c0.609,32.078-19.197,61.527-49.285,73.279c-0.049,0.02-0.099,0.038-0.147,0.057    c-21.556,8.029-36.269,27.661-37.484,50.016C227.784,345.616,242.447,368.209,264.91,377.469z M267.5,317.5c5.51,0,10,4.489,10,10    c0,5.508-4.489,10-10,10c-5.508,0-10-4.487-10-10C257.5,321.989,261.988,317.5,267.5,317.5z"/>
                <path d="M221.135,391.009L167.649,517.5h189.596l-51.539-127.09C278.735,399.545,248.897,399.966,221.135,391.009    z M268.513,457.5h-9.875c-5.523,0-10-4.478-10-10s4.477-10,10-10h9.875c5.522,0,10,4.478,10,10S274.035,457.5,268.513,457.5z"/>
                <path d="M390.616,219.927c9.075,27.24,9.183,56.883,0.309,84.197L517.5,357.337V167.718L390.616,219.927z     M458.069,266.931c0,5.522-4.478,10-10,10s-10-4.478-10-10v-9.875c0-5.523,4.478-10,10-10s10,4.477,10,10V266.931z"/>
                <path d="M134.196,220.505L7.5,167.686V357.26l127.003-51.821C125.339,278.195,125.091,248.252,134.196,220.505z     M88.069,267.943c0,5.522-4.477,10-10,10s-10-4.478-10-10v-9.875c0-5.523,4.477-10,10-10s10,4.477,10,10V267.943z"/>
                <path d="M304.766,134.284L357.289,7.5H167.688l52.505,126.797C248.055,125.08,277.879,125.398,304.766,134.284z     M257.625,67.5h9.875c5.522,0,10,4.477,10,10s-4.478,10-10,10h-9.875c-5.523,0-10-4.477-10-10S252.102,67.5,257.625,67.5z"/>
            </g>
        </g>
        <rect x="4.5" y="4.5" width="516" height="516" fill="transparent" pointer-events="all"/>
    </g>
</svg>
