<svg xmlns="http://www.w3.org/2000/svg" xmlns:xlink="http://www.w3.org/1999/xlink"
     width="400" height="150"
     viewBox="0 0 400 150">
    <defs>
        <linearGradient id="gradient-1" x1="49.99999999999999%" y1="0%" x2="50.00000000000001%" y2="100%">
            <stop offset="0.00" stop-color="#0060FA"/>
            <stop offset="1.00" stop-color="#00a6fb"/>
        </linearGradient>
    </defs>
    <rect data-name="background" width="100%" height="100%" fill="transparent"/>
    <g data-name="icon" fill="url(#gradient-1)" data="id:5393605"
       transform="translate(10.726324938609038,15.4213728513163) scale(0.16982334151879494)">
        <g>
            <g>
                <path d="M259.499,253.159c22.283-8.737,36.948-30.527,36.498-54.244c-0.427-22.543-14.046-42.519-34.858-51.397    C198.353,148.251,147.5,199.544,147.5,262.5c0,50.245,32.393,93.061,77.389,108.677c-11.445-14.953-16.752-32.593-15.784-50.376    C210.75,290.526,230.528,263.984,259.499,253.159z M257.5,187.75c5.508,0,10,4.487,10,10c0,5.508-4.488,10-10,10    c-5.508,0-10-4.487-10-10C247.5,192.24,251.987,187.75,257.5,187.75z"/>
                <path d="M142.273,323.87L15.125,375.749l134.061,134.062l53.426-126.346    C176.69,370.579,155.465,349.611,142.273,323.87z M143.175,404.235c-3.906,3.905-10.237,3.904-14.143,0l-6.982-6.982    c-3.905-3.905-3.905-10.237,0-14.143c3.905-3.904,10.237-3.904,14.143,0l6.982,6.982    C147.08,393.998,147.08,400.33,143.175,404.235z"/>
                <path d="M382.899,201.476l126.961-52.24L375.77,15.145l-52.535,126.812    C348.887,154.934,369.862,175.858,382.899,201.476z M382.963,120.765c3.906-3.905,10.236-3.905,14.143,0l6.982,6.982    c3.905,3.905,3.905,10.237,0,14.143c-3.906,3.905-10.236,3.905-14.143,0l-6.982-6.982    C379.058,131.002,379.058,124.67,382.963,120.765z"/>
                <path d="M324.118,382.597l51.62,127.289L509.82,375.804l-126.477-53.171    C370.489,348.359,349.665,369.437,324.118,382.597z M390.662,382.394c3.906-3.904,10.236-3.904,14.143,0    c3.905,3.905,3.905,10.237,0,14.143l-6.983,6.983c-3.907,3.905-10.236,3.904-14.143,0c-3.905-3.905-3.905-10.237,0-14.143    L390.662,382.394z"/>
                <path d="M201.726,141.976L149.214,15.161L15.163,149.212l126.667,52.807    C154.84,176.168,175.911,155.046,201.726,141.976z M121.333,142.605c-3.905-3.905-3.905-10.237,0-14.142l6.983-6.982    c3.906-3.904,10.237-3.905,14.142,0c3.905,3.905,3.905,10.237,0,14.142l-6.983,6.982    C131.57,146.51,125.239,146.511,121.333,142.605z"/>
                <path d="M264.91,377.469c62.302-1.288,112.59-52.364,112.59-114.969c0-49.998-32.075-92.637-76.726-108.443    c9.406,12.603,14.907,28.031,15.218,44.479c0.609,32.078-19.197,61.527-49.285,73.279c-0.049,0.02-0.099,0.038-0.147,0.057    c-21.556,8.029-36.269,27.661-37.484,50.016C227.784,345.616,242.447,368.209,264.91,377.469z M267.5,317.5c5.51,0,10,4.489,10,10    c0,5.508-4.489,10-10,10c-5.508,0-10-4.487-10-10C257.5,321.989,261.988,317.5,267.5,317.5z"/>
                <path d="M221.135,391.009L167.649,517.5h189.596l-51.539-127.09C278.735,399.545,248.897,399.966,221.135,391.009    z M268.513,457.5h-9.875c-5.523,0-10-4.478-10-10s4.477-10,10-10h9.875c5.522,0,10,4.478,10,10S274.035,457.5,268.513,457.5z"/>
                <path d="M390.616,219.927c9.075,27.24,9.183,56.883,0.309,84.197L517.5,357.337V167.718L390.616,219.927z     M458.069,266.931c0,5.522-4.478,10-10,10s-10-4.478-10-10v-9.875c0-5.523,4.478-10,10-10s10,4.477,10,10V266.931z"/>
                <path d="M134.196,220.505L7.5,167.686V357.26l127.003-51.821C125.339,278.195,125.091,248.252,134.196,220.505z     M88.069,267.943c0,5.522-4.477,10-10,10s-10-4.478-10-10v-9.875c0-5.523,4.477-10,10-10s10,4.477,10,10V267.943z"/>
                <path d="M304.766,134.284L357.289,7.5H167.688l52.505,126.797C248.055,125.08,277.879,125.398,304.766,134.284z     M257.625,67.5h9.875c5.522,0,10,4.477,10,10s-4.478,10-10,10h-9.875c-5.523,0-10-4.477-10-10S252.102,67.5,257.625,67.5z"/>
            </g>
        </g>
        <rect x="4.5" y="4.5" width="516" height="516" fill="transparent" pointer-events="all"/>
    </g>
    <g data-name="business_name" fill="url(#gradient-1)" data="id:85"
       transform="translate(123.60990421813327,4.10549476952542) scale(1.4612233275325157)">
        <path d="M16.8359375,18.76953125q5.3125,0,8.115234375,1.884765625t2.802734375,5.400390625q0,1.71875-0.400390625,2.939453125t-1.11328125,2.0703125t-1.69921875,1.40625t-2.138671875,0.947265625q0.80078125,0.21484375,1.611328125,1.15234375t1.650390625,2.314453125t1.69921875,3.056640625t1.728515625,3.3984375t1.7578125,3.33984375t1.77734375,2.890625t1.796875,2.03125t1.806640625,0.76171875q0.390625,0,0.771484375-0.15625t0.595703125-0.3125l0.41015625,0.76171875q-0.390625,0.21484375-0.95703125,0.478515625t-1.328125,0.498046875t-1.708984375,0.400390625t-2.099609375,0.166015625q-1.89453125,0-3.41796875-1.044921875t-2.6171875-2.939453125q-1.11328125-1.953125-2.1875-4.1015625t-2.138671875-4.296875t-2.12890625-4.19921875t-2.138671875-3.84765625l0.15625-0.80078125q1.15234375,0.29296875,2.001953125-0.13671875t1.396484375-1.396484375t0.810546875-2.373046875t0.263671875-3.046875q0-1.171875-0.25390625-2.197265625t-0.712890625-1.796875t-1.103515625-1.2109375t-1.4453125-0.439453125q-0.625,0-1.025390625,0.185546875t-0.634765625,0.46875t-0.322265625,0.60546875t-0.087890625,0.615234375l0,23.1640625q0,1.50390625-0.791015625,2.1875t-2.412109375,0.68359375q-1.640625,0-2.421875-0.68359375t-0.78125-2.1875l0-23.359375q0-1.07421875-1.484375-1.07421875q-1.07421875,0-2.177734375,0.322265625t-1.9921875,0.87890625t-1.455078125,1.328125t-0.56640625,1.669921875q0,0.625,0.166015625,0.99609375t0.380859375,0.556640625t0.439453125,0.234375t0.322265625,0.048828125q0.48828125,0,0.80078125-0.166015625t0.56640625-0.3515625t0.478515625-0.3515625t0.517578125-0.166015625q0.234375,0,0.498046875,0.107421875t0.48828125,0.341796875t0.380859375,0.615234375t0.15625,0.927734375q0,0.78125-0.302734375,1.34765625t-0.78125,0.947265625t-1.09375,0.56640625t-1.220703125,0.185546875q-0.9375,0-1.689453125-0.322265625t-1.279296875-0.888671875t-0.80078125-1.328125t-0.2734375-1.62109375q0-1.62109375,0.60546875-2.861328125t1.708984375-2.138671875t2.646484375-1.494140625t3.41796875-0.947265625t4.013671875-0.498046875t4.443359375-0.146484375z M42.83203125,37.8515625q0-0.48828125-0.3125-0.7421875t-0.80078125-0.25390625q-0.68359375,0-1.298828125,0.3125t-1.083984375,0.91796875t-0.7421875,1.494140625t-0.2734375,2.060546875q0,1.1328125,0.166015625,1.875t0.44921875,1.181640625t0.654296875,0.615234375t0.78125,0.17578125q0.5078125,0,0.95703125-0.263671875t0.78125-0.673828125t0.52734375-0.91796875t0.1953125-1.015625l0-4.765625z M39.7265625,29.296875q-0.6640625,0-1.23046875,0.15625t-0.9765625,0.390625t-0.64453125,0.517578125t-0.234375,0.537109375q0,0.29296875,0.302734375,0.419921875t0.673828125,0.29296875t0.673828125,0.46875t0.302734375,0.927734375q0,0.41015625-0.166015625,0.751953125t-0.44921875,0.60546875t-0.6640625,0.41015625t-0.791015625,0.146484375q-1.09375,0-1.767578125-0.7421875t-0.673828125-1.97265625q0-1.19140625,0.625-2.041015625t1.630859375-1.396484375t2.275390625-0.810546875t2.5390625-0.263671875q1.5234375,0,2.91015625,0.33203125t2.451171875,1.0546875t1.69921875,1.8359375t0.634765625,2.6953125l0,11.03515625q0,0.17578125,0.01953125,0.390625t0.09765625,0.390625t0.234375,0.29296875t0.44921875,0.1171875q0.3515625,0,0.654296875-0.263671875t0.537109375-0.537109375l0.48828125,0.41015625q-0.29296875,0.41015625-0.703125,0.8984375t-0.99609375,0.91796875t-1.3671875,0.72265625t-1.77734375,0.29296875q-1.23046875,0-2.1875-0.732421875t-1.25-2.255859375q-0.625,0.83984375-1.298828125,1.40625t-1.376953125,0.91796875t-1.416015625,0.5078125t-1.435546875,0.15625q-0.9375,0-1.81640625-0.29296875t-1.572265625-0.927734375t-1.11328125-1.650390625t-0.419921875-2.48046875q0-1.77734375,0.703125-2.91015625t1.845703125-1.904296875t2.59765625-1.318359375t2.978515625-1.15234375q1.1328125-0.44921875,1.650390625-1.337890625t0.517578125-1.826171875q0-1.4453125-0.849609375-2.314453125t-2.314453125-0.869140625z M60.99609375,30.9765625q0.1953125-0.25390625,0.341796875-0.546875t0.146484375-0.546875q0-0.37109375-0.5859375-0.52734375t-2.16796875-0.15625q-0.9765625,0-1.62109375,0.234375t-1.064453125,0.576171875t-0.68359375,0.751953125t-0.458984375,0.751953125t-0.380859375,0.576171875t-0.478515625,0.234375q-0.33203125,0-0.576171875-0.21484375t-0.400390625-0.537109375t-0.234375-0.703125t-0.078125-0.732421875q0-0.52734375,0.44921875-0.9765625t1.30859375-0.771484375t2.099609375-0.5078125t2.841796875-0.185546875q2.59765625,0,4.228515625,0.21484375t2.548828125,0.576171875t1.25,0.869140625t0.33203125,1.09375q0,0.3125-0.146484375,0.693359375t-0.3515625,0.732421875t-0.41015625,0.654296875t-0.302734375,0.439453125l-8.125,12.44140625q-0.05859375,0.09765625-0.185546875,0.302734375t-0.126953125,0.458984375q0,0.15625,0.107421875,0.2734375t0.41015625,0.1953125t0.869140625,0.107421875t1.484375,0.029296875q1.171875,0,1.943359375-0.25390625t1.259765625-0.64453125t0.78125-0.830078125t0.5078125-0.830078125t0.419921875-0.64453125t0.537109375-0.25390625t0.5859375,0.244140625t0.4296875,0.615234375t0.263671875,0.80078125t0.087890625,0.78125q0,0.52734375-0.46875,0.986328125t-1.42578125,0.80078125t-2.431640625,0.537109375t-3.486328125,0.1953125q-2.16796875,0-3.69140625-0.17578125t-2.48046875-0.517578125t-1.38671875-0.869140625t-0.4296875-1.23046875q0-0.56640625,0.263671875-1.123046875t0.771484375-1.279296875z M87.71484375,46.25q0,0.25390625-0.078125,0.60546875t-0.380859375,0.6640625t-0.908203125,0.537109375t-1.640625,0.224609375t-1.630859375-0.244140625t-0.8984375-0.576171875t-0.380859375-0.68359375t-0.078125-0.56640625l0-13.80859375q0-0.2734375-0.078125-0.556640625t-0.234375-0.517578125t-0.390625-0.380859375t-0.546875-0.146484375q-0.52734375,0-1.03515625,0.302734375t-0.947265625,0.693359375t-0.76171875,0.78125t-0.458984375,0.5859375l0,13.0859375q0,0.25390625-0.078125,0.60546875t-0.380859375,0.6640625t-0.8984375,0.537109375t-1.630859375,0.224609375t-1.630859375-0.244140625t-0.908203125-0.576171875t-0.390625-0.68359375t-0.078125-0.56640625l0-15.078125q0-0.56640625-0.263671875-0.986328125t-0.888671875-0.419921875q-0.33203125,0-0.56640625,0.1171875t-0.5078125,0.33203125l-0.41015625-0.48828125q0.44921875-0.37109375,1.005859375-0.732421875t1.201171875-0.634765625t1.38671875-0.44921875t1.5625-0.17578125q1.26953125,0,1.97265625,0.419921875t1.03515625,1.005859375t0.400390625,1.220703125t0.068359375,1.064453125q0.91796875-1.03515625,1.97265625-1.85546875q0.4296875-0.3515625,0.947265625-0.68359375t1.064453125-0.595703125t1.1328125-0.419921875t1.171875-0.15625q1.1328125,0,1.93359375,0.41015625t1.2890625,0.986328125t0.712890625,1.2109375t0.224609375,1.103515625q0.9375-1.03515625,1.97265625-1.85546875q0.4296875-0.3515625,0.9375-0.68359375t1.064453125-0.595703125t1.1328125-0.419921875t1.162109375-0.15625q1.1328125,0,1.93359375,0.419921875t1.2890625,1.103515625t0.712890625,1.54296875t0.224609375,1.71875l0,12.08984375q0,0.17578125,0.01953125,0.380859375t0.09765625,0.390625t0.244140625,0.302734375t0.439453125,0.1171875q0.37109375,0,0.6640625-0.263671875t0.546875-0.537109375l0.46875,0.41015625q-0.2734375,0.41015625-0.72265625,0.908203125t-1.064453125,0.947265625t-1.42578125,0.751953125t-1.826171875,0.302734375q-0.859375,0-1.494140625-0.224609375t-1.07421875-0.60546875t-0.654296875-0.8984375t-0.21484375-1.103515625l0-13.046875q0-0.2734375-0.078125-0.556640625t-0.224609375-0.517578125t-0.380859375-0.380859375t-0.546875-0.146484375q-0.52734375,0-1.044921875,0.302734375t-0.95703125,0.693359375t-0.751953125,0.78125t-0.44921875,0.5859375l0,13.0859375z M109.51171875,46.2109375q0,0.25390625-0.087890625,0.615234375t-0.41015625,0.68359375t-0.927734375,0.546875t-1.640625,0.224609375t-1.62109375-0.244140625t-0.87890625-0.576171875t-0.361328125-0.68359375t-0.068359375-0.56640625l0-15.078125q0-0.56640625-0.263671875-0.986328125t-0.888671875-0.419921875q-0.33203125,0-0.56640625,0.1171875t-0.5078125,0.33203125l-0.41015625-0.48828125q0.44921875-0.37109375,1.005859375-0.732421875t1.201171875-0.634765625t1.38671875-0.44921875t1.5625-0.17578125q1.26953125,0,1.97265625,0.341796875t1.03515625,0.83984375t0.400390625,1.064453125t0.068359375,0.99609375l0,15.2734375z M102.91015625,23.2421875q0-0.546875,0.244140625-1.044921875t0.68359375-0.869140625t1.015625-0.5859375t1.259765625-0.21484375q0.6640625,0,1.240234375,0.21484375t1.005859375,0.5859375t0.673828125,0.869140625t0.244140625,1.044921875q0,0.56640625-0.244140625,1.0546875t-0.673828125,0.849609375t-1.005859375,0.576171875t-1.240234375,0.21484375q-0.68359375,0-1.259765625-0.21484375t-1.015625-0.576171875t-0.68359375-0.849609375t-0.244140625-1.0546875z M120.5078125,50.80078125q0.78125,0,1.54296875-0.283203125t1.357421875-0.9375t0.966796875-1.708984375t0.37109375-2.578125q0-1.640625-0.810546875-3.18359375t-2.03125-3.037109375t-2.63671875-2.96875t-2.63671875-3.0078125t-2.03125-3.1640625t-0.810546875-3.408203125t0.654296875-3.212890625t1.77734375-2.44140625t2.6171875-1.552734375t3.193359375-0.546875q1.81640625,0,3.232421875,0.380859375t2.40234375,1.03515625t1.494140625,1.54296875t0.5078125,1.884765625q0,0.46875-0.13671875,0.966796875t-0.4296875,0.908203125t-0.7421875,0.68359375t-1.0546875,0.2734375q-0.72265625,0-1.064453125-0.439453125t-0.5078125-1.083984375t-0.283203125-1.416015625t-0.37109375-1.416015625t-0.76171875-1.083984375t-1.484375-0.439453125q-0.52734375,0-1.044921875,0.234375t-0.9375,0.712890625t-0.673828125,1.220703125t-0.25390625,1.7578125q0,1.171875,0.48828125,2.28515625t1.2890625,2.197265625t1.826171875,2.16796875t2.08984375,2.1875t2.08984375,2.265625t1.826171875,2.412109375t1.2890625,2.6171875t0.48828125,2.87109375q0,2.20703125-0.849609375,3.935546875t-2.3046875,2.91015625t-3.408203125,1.806640625t-4.16015625,0.625q-1.9921875,0-3.525390625-0.498046875t-2.587890625-1.318359375t-1.591796875-1.865234375t-0.537109375-2.158203125q0-0.46875,0.146484375-1.005859375t0.4296875-0.986328125t0.712890625-0.751953125t0.99609375-0.302734375q0.5859375,0,0.947265625,0.29296875t0.576171875,0.78125t0.3515625,1.11328125t0.29296875,1.26953125t0.390625,1.26953125t0.64453125,1.11328125t1.0546875,0.78125t1.62109375,0.29296875z M133.75,37.96875q0-2.55859375,0.7421875-4.482421875t1.982421875-3.212890625t2.880859375-1.93359375t3.4375-0.64453125t3.4375,0.595703125t2.880859375,1.826171875t1.982421875,3.115234375t0.7421875,4.462890625q0,2.55859375-0.7421875,4.53125t-1.982421875,3.3203125t-2.880859375,2.041015625t-3.4375,0.693359375t-3.4375-0.654296875t-2.880859375-1.943359375t-1.982421875-3.22265625t-0.7421875-4.4921875z M145.76171875,37.7734375q0-1.5625-0.107421875-3.017578125t-0.419921875-2.587890625t-0.8984375-1.806640625t-1.54296875-0.673828125t-1.54296875,0.712890625t-0.8984375,1.875t-0.41015625,2.646484375t-0.09765625,3.046875t0.09765625,3.056640625t0.41015625,2.666015625t0.8984375,1.884765625t1.54296875,0.712890625t1.54296875-0.7421875t0.8984375-1.953125t0.419921875-2.734375t0.107421875-3.0859375z M165.1171875,18.92578125q-0.546875,0-1.03515625,0.234375t-0.849609375,0.751953125t-0.576171875,1.318359375t-0.21484375,1.93359375l0,4.8046875l4.27734375,0l0,1.40625l-4.27734375,0l0,15.390625q0,2.65625-0.693359375,4.90234375t-2.099609375,3.876953125t-3.515625,2.548828125t-4.921875,0.91796875q-0.99609375,0-1.9140625-0.166015625t-1.62109375-0.458984375t-1.123046875-0.693359375t-0.419921875-0.888671875q0-0.3515625,0.09765625-0.712890625t0.29296875-0.654296875t0.478515625-0.478515625t0.654296875-0.185546875q0.21484375,0,0.380859375,0.21484375t0.341796875,0.52734375t0.400390625,0.693359375t0.576171875,0.693359375t0.869140625,0.52734375t1.259765625,0.21484375q0.99609375,0,1.7578125-0.400390625t1.30859375-1.103515625t0.91796875-1.66015625t0.5859375-2.05078125t0.302734375-2.28515625t0.087890625-2.3828125l0-16.38671875l-3.59375,0l0-1.40625l3.59375,0l0-2.28515625q0-1.71875,0.419921875-2.998046875t1.11328125-2.177734375t1.572265625-1.46484375t1.787109375-0.8984375t1.767578125-0.44921875t1.50390625-0.1171875q1.38671875,0,2.4609375,0.205078125t1.796875,0.546875t1.09375,0.791015625t0.37109375,0.91796875q0,0.3515625-0.107421875,0.712890625t-0.302734375,0.6640625t-0.478515625,0.48828125t-0.634765625,0.185546875q-0.21484375,0-0.390625-0.234375t-0.37109375-0.5859375t-0.4296875-0.76171875t-0.576171875-0.76171875t-0.810546875-0.5859375t-1.11328125-0.234375z M174.82421875,29.375l0,14.43359375q0,1.03515625,0.390625,1.435546875t1.07421875,0.400390625q0.52734375,0,0.9375-0.29296875t0.703125-0.6640625q0.3515625-0.41015625,0.60546875-0.95703125l0.60546875,0.2734375q-0.29296875,0.625-0.693359375,1.3671875t-1.064453125,1.376953125t-1.669921875,1.064453125t-2.529296875,0.4296875q-0.859375,0-1.650390625-0.25390625t-1.40625-0.80078125t-0.986328125-1.3671875t-0.37109375-1.97265625l0-14.47265625l-2.1875,0l0-1.40625q0.546875,0,1.5234375-0.283203125t2.001953125-0.947265625t1.904296875-1.77734375t1.25-2.75390625l1.5625,0l0,5.76171875l3.18359375,0q1.5625,0,1.5625-0.52734375q0-0.1953125-0.1953125-0.263671875t-0.439453125-0.17578125t-0.439453125-0.302734375t-0.1953125-0.64453125q0-0.546875,0.341796875-0.859375t0.888671875-0.3125q0.3515625,0,0.615234375,0.146484375t0.439453125,0.390625t0.263671875,0.556640625t0.087890625,0.625q0,1.26953125-0.732421875,2.021484375t-2.353515625,0.751953125l-3.02734375,0z"/>
        <rect x="-3.0000000298023224" y="14.578125" width="186.9375" height="45.43359375" fill="transparent" pointer-events="all"/>
    </g>
</svg>
