<svg xmlns="http://www.w3.org/2000/svg" xmlns:xlink="http://www.w3.org/1999/xlink" width="320" zoomAndPan="magnify" viewBox="0 0 240 60" height="80" preserveAspectRatio="xMidYMid meet" version="1.0"><defs><g/></defs><path fill="#ffffff" d="M 19.175781 36.929688 C 17.597656 38.546875 15.136719 36.152344 16.714844 34.527344 C 18.296875 32.910156 20.753906 35.3125 19.175781 36.929688 Z M 55.03125 34.726562 C 54.351562 37.9375 52.980469 41.03125 50.921875 43.773438 C 52.300781 45.367188 50.261719 47.652344 48.519531 46.496094 C 46.738281 48.222656 44.746094 49.613281 42.628906 50.65625 C 43.34375 53.613281 39.15625 55.070312 37.84375 52.367188 C 36.210938 52.765625 34.527344 52.988281 32.816406 53.019531 C 31.933594 55.164062 28.757812 54.886719 28.242188 52.648438 C 25.957031 52.230469 23.644531 51.433594 21.625 50.378906 C 19.652344 52.007812 16.773438 50.097656 17.558594 47.660156 C 15.042969 45.554688 13.019531 42.964844 11.59375 40.046875 C 9.007812 40.523438 7.671875 36.976562 9.964844 35.648438 C 9.339844 33.214844 9.097656 30.660156 9.308594 28.074219 C 6.625 27.246094 7.300781 23.089844 10.210938 23.257812 C 11.585938 18.652344 14.277344 14.785156 17.753906 11.953125 C 16.242188 9 20.078125 6.066406 22.515625 8.445312 C 22.636719 8.558594 22.738281 8.683594 22.835938 8.8125 C 26.519531 7.140625 30.652344 6.425781 34.851562 6.882812 C 35.632812 4.832031 38.71875 5.4375 38.675781 7.625 C 39.785156 7.9375 40.875 8.335938 41.9375 8.816406 C 42.988281 7.699219 44.800781 8.714844 44.460938 10.152344 C 45.0625 10.519531 45.65625 10.925781 46.234375 11.359375 C 47.609375 12.382812 48.886719 13.582031 49.996094 14.878906 C 51.199219 14.417969 52.339844 15.863281 51.5625 16.925781 C 52.363281 18.105469 53.042969 19.34375 53.605469 20.625 C 55.613281 20.328125 56.597656 23.089844 54.808594 24.109375 C 55.296875 26.019531 55.542969 27.980469 55.535156 29.945312 C 58.289062 30.574219 57.859375 34.6875 55.03125 34.726562 Z M 49.253906 16.683594 C 48.339844 16.800781 47.425781 16.960938 46.519531 17.148438 C 46.558594 17.570312 46.507812 18 46.371094 18.402344 C 48.429688 19.199219 50.425781 20.214844 52.328125 21.429688 L 52.808594 20.945312 C 52.5 20.246094 52.15625 19.554688 51.777344 18.886719 C 51.496094 18.386719 51.191406 17.898438 50.867188 17.417969 C 50.25 17.605469 49.527344 17.296875 49.253906 16.683594 Z M 30.464844 27.007812 C 33.164062 27.980469 35.769531 29.308594 38.21875 30.992188 C 38.320312 30.902344 38.433594 30.828125 38.542969 30.765625 C 37.609375 28.191406 36.355469 25.707031 34.773438 23.386719 C 34.285156 23.601562 33.710938 23.550781 33.257812 23.238281 C 32.199219 24.046875 31.175781 24.925781 30.199219 25.875 C 30.414062 26.222656 30.5 26.617188 30.464844 27.007812 Z M 40.625 16.726562 C 40.671875 16.515625 40.75 16.308594 40.847656 16.113281 C 38.25 14.460938 35.480469 13.203125 32.617188 12.335938 C 31.996094 13.171875 31.417969 14.027344 30.882812 14.898438 C 31.292969 15.1875 31.609375 15.605469 31.761719 16.128906 C 34.726562 15.945312 37.707031 16.144531 40.625 16.726562 Z M 40.539062 17.554688 C 37.675781 16.976562 34.753906 16.777344 31.84375 16.960938 C 31.8125 17.347656 31.6875 17.730469 31.464844 18.070312 C 32.234375 18.847656 32.960938 19.652344 33.640625 20.484375 C 34.179688 20.296875 34.816406 20.414062 35.246094 20.84375 C 36.964844 19.761719 38.765625 18.84375 40.613281 18.089844 C 40.570312 17.917969 40.550781 17.738281 40.539062 17.554688 Z M 27.308594 17.554688 C 21.929688 18.636719 16.769531 21.046875 12.359375 24.78125 C 12.464844 25.03125 12.527344 25.300781 12.539062 25.570312 C 17.332031 24.679688 22.261719 24.800781 27.027344 25.972656 C 27.105469 25.824219 27.207031 25.683594 27.332031 25.558594 C 27.945312 24.929688 28.90625 24.835938 29.617188 25.289062 C 30.613281 24.320312 31.652344 23.421875 32.730469 22.601562 C 32.492188 22.070312 32.5625 21.429688 32.953125 20.964844 C 32.308594 20.179688 31.621094 19.414062 30.890625 18.675781 C 29.652344 19.570312 27.8125 18.992188 27.308594 17.554688 Z M 39.339844 30.515625 C 39.628906 30.484375 39.921875 30.519531 40.203125 30.609375 C 41.710938 27.347656 42.671875 23.894531 43.070312 20.394531 C 42.191406 20.257812 41.34375 19.675781 40.90625 18.871094 C 39.101562 19.601562 37.34375 20.5 35.664062 21.566406 C 35.773438 22.003906 35.695312 22.476562 35.425781 22.863281 C 37.070312 25.269531 38.375 27.84375 39.339844 30.515625 Z M 40.925781 31.035156 C 41.125 31.21875 41.277344 31.429688 41.390625 31.65625 C 42.917969 30.992188 44.40625 30.214844 45.835938 29.316406 C 45.664062 26.28125 45.085938 23.277344 44.09375 20.375 C 44.035156 20.390625 43.972656 20.398438 43.910156 20.40625 C 43.5 24.054688 42.503906 27.648438 40.925781 31.035156 Z M 41.390625 33.453125 C 42.691406 34.589844 43.882812 35.804688 44.972656 37.082031 C 45.101562 37.027344 45.246094 36.996094 45.390625 36.984375 C 45.78125 34.761719 45.9375 32.511719 45.878906 30.269531 C 44.492188 31.109375 43.066406 31.84375 41.59375 32.472656 C 41.605469 32.808594 41.539062 33.144531 41.390625 33.453125 Z M 46.636719 28.804688 C 48.035156 27.871094 49.375 26.828125 50.636719 25.664062 C 49.183594 23.511719 47.457031 21.488281 45.503906 19.695312 C 45.3125 19.863281 45.101562 20.003906 44.882812 20.117188 C 45.839844 22.9375 46.429688 25.855469 46.636719 28.804688 Z M 51.253906 25.085938 C 51.695312 24.660156 52.128906 24.222656 52.546875 23.769531 C 52.164062 23.367188 51.941406 22.804688 52.027344 22.214844 C 50.179688 21.023438 48.242188 20.027344 46.242188 19.242188 C 48.140625 21.011719 49.824219 22.988281 51.253906 25.085938 Z M 43.6875 11.132812 C 43.867188 12.246094 43.988281 13.367188 44.054688 14.484375 C 45.046875 14.65625 45.953125 15.390625 46.324219 16.339844 C 47.265625 16.140625 48.210938 15.976562 49.160156 15.859375 C 49.191406 15.703125 49.253906 15.550781 49.34375 15.414062 C 47.835938 13.636719 46.039062 12.101562 44.050781 10.875 C 43.941406 10.980469 43.820312 11.070312 43.6875 11.132812 Z M 38.3125 8.730469 C 39.925781 10.585938 41.304688 12.566406 42.457031 14.644531 C 42.703125 14.546875 42.960938 14.484375 43.222656 14.457031 C 43.15625 13.390625 43.039062 12.335938 42.871094 11.277344 C 42.042969 11.191406 41.4375 10.375 41.574219 9.5625 C 40.589844 9.117188 39.558594 8.742188 38.488281 8.4375 C 38.4375 8.539062 38.378906 8.640625 38.3125 8.730469 Z M 33.164062 11.632812 C 35.996094 12.519531 38.742188 13.785156 41.320312 15.425781 L 41.734375 15.046875 C 40.617188 13.019531 39.273438 11.09375 37.707031 9.292969 C 36.941406 9.738281 36.027344 9.582031 35.417969 9.058594 Z M 23.238281 9.558594 C 23.300781 9.726562 23.34375 9.898438 23.375 10.074219 C 26.378906 10.117188 29.386719 10.550781 32.304688 11.378906 L 34.898438 8.390625 C 34.800781 8.183594 34.746094 7.957031 34.726562 7.714844 C 30.816406 7.308594 26.863281 7.925781 23.238281 9.558594 Z M 23.132812 11.875 C 24.816406 12.769531 26.441406 13.808594 27.988281 15 C 28.609375 14.46875 29.414062 14.347656 30.125 14.546875 C 30.632812 13.710938 31.175781 12.890625 31.765625 12.09375 C 29.027344 11.339844 26.21875 10.945312 23.402344 10.90625 C 23.371094 11.238281 23.277344 11.566406 23.132812 11.875 Z M 11.050781 23.457031 L 11.90625 24.074219 C 16.421875 20.28125 21.691406 17.832031 27.175781 16.734375 C 27.183594 16.359375 27.28125 15.984375 27.46875 15.644531 C 25.941406 14.46875 24.339844 13.445312 22.671875 12.574219 C 21.511719 13.886719 19.464844 13.925781 18.253906 12.65625 C 14.847656 15.460938 12.265625 19.410156 11.050781 23.457031 Z M 27.171875 27.925781 C 26.921875 27.585938 26.800781 27.179688 26.808594 26.773438 C 22.082031 25.617188 17.183594 25.515625 12.4375 26.433594 C 12.125 27.488281 11.144531 28.140625 10.132812 28.179688 C 9.945312 30.632812 10.164062 33.054688 10.753906 35.363281 C 13.3125 34.921875 14.628906 38.40625 12.375 39.75 C 13.71875 42.476562 15.605469 44.910156 17.945312 46.898438 C 18.300781 46.414062 18.824219 46.054688 19.476562 45.921875 C 20.210938 39.480469 22.773438 33.203125 27.171875 27.925781 Z M 22.394531 47.5625 C 28.816406 44.96875 34.5625 40.164062 38.285156 34.171875 C 37.511719 33.5625 37.292969 32.496094 37.707031 31.648438 C 35.332031 30.023438 32.808594 28.742188 30.195312 27.800781 C 29.695312 28.609375 28.625 28.886719 27.804688 28.46875 C 23.542969 33.578125 21.050781 39.652344 20.3125 45.890625 C 21.234375 46.003906 22.078125 46.675781 22.394531 47.5625 Z M 39.679688 34.597656 C 39.460938 34.613281 39.246094 34.59375 39.039062 34.535156 C 35.191406 40.765625 29.222656 45.738281 22.542969 48.398438 C 22.546875 48.894531 22.414062 49.347656 22.179688 49.726562 C 24.023438 50.671875 26.121094 51.394531 28.195312 51.792969 C 28.578125 48.789062 33.097656 49.15625 32.988281 52.183594 C 34.558594 52.140625 36.105469 51.933594 37.609375 51.570312 C 37.464844 50.238281 38.402344 48.875 39.890625 48.722656 C 40.824219 44.054688 40.75 39.238281 39.679688 34.597656 Z M 40.882812 48.820312 C 42.695312 45.902344 44.011719 42.769531 44.84375 39.535156 C 44.160156 39.171875 43.933594 38.269531 44.335938 37.621094 C 43.28125 36.386719 42.132812 35.214844 40.875 34.117188 C 40.753906 34.222656 40.621094 34.3125 40.480469 34.386719 C 41.574219 39.113281 41.664062 44.027344 40.730469 48.785156 C 40.78125 48.789062 40.832031 48.804688 40.882812 48.820312 Z M 48.367188 43.558594 C 47.644531 42.207031 46.828125 40.890625 45.914062 39.628906 C 45.828125 39.65625 45.746094 39.679688 45.660156 39.6875 C 44.820312 42.996094 43.476562 46.203125 41.632812 49.191406 L 42.277344 49.875 C 44.355469 48.84375 46.265625 47.496094 47.9375 45.871094 C 47.511719 45.121094 47.671875 44.128906 48.367188 43.558594 Z M 54.179688 34.585938 C 52.527344 33.992188 52.027344 31.746094 53.363281 30.523438 C 52.71875 29.109375 51.964844 27.714844 51.101562 26.371094 C 49.710938 27.636719 48.234375 28.769531 46.691406 29.765625 C 46.796875 32.242188 46.632812 34.730469 46.199219 37.191406 C 46.867188 37.601562 47.042969 38.519531 46.585938 39.144531 C 47.527344 40.441406 48.371094 41.796875 49.109375 43.191406 C 49.476562 43.105469 49.863281 43.136719 50.21875 43.277344 C 52.078125 40.796875 53.496094 37.746094 54.179688 34.585938 Z M 54.683594 29.902344 C 54.683594 28.007812 54.445312 26.144531 53.984375 24.351562 C 53.730469 24.363281 53.476562 24.324219 53.25 24.234375 C 52.757812 24.777344 52.242188 25.292969 51.722656 25.792969 C 52.613281 27.175781 53.402344 28.609375 54.070312 30.070312 C 54.269531 29.988281 54.476562 29.929688 54.683594 29.902344 Z M 50.492188 36.199219 C 49.347656 35.882812 48.867188 37.628906 50.011719 37.945312 C 51.152344 38.265625 51.636719 36.515625 50.492188 36.199219 Z M 33.238281 35.148438 C 34.714844 35.382812 35.074219 33.132812 33.597656 32.898438 C 32.117188 32.664062 31.761719 34.914062 33.238281 35.148438 Z M 33.441406 44.632812 C 31.570312 44.117188 30.78125 46.96875 32.652344 47.484375 C 34.523438 48.003906 35.3125 45.152344 33.441406 44.632812 Z M 24.660156 20.375 C 23.085938 19.9375 22.417969 22.34375 23.996094 22.78125 C 25.570312 23.214844 26.234375 20.808594 24.660156 20.375 Z M 24.660156 20.375 " fill-opacity="1" fill-rule="nonzero"/><g fill="#ffffff" fill-opacity="1"><g transform="translate(96.741961, 24.190276)"><g><path d="M 12.359375 0 L 11.25 -3.015625 L 4.921875 -3.015625 L 3.828125 0 L 0.203125 0 L 6.421875 -15.875 L 9.671875 -15.875 L 16.078125 0 Z M 8.078125 -11.6875 L 6.015625 -6.015625 L 10.15625 -6.015625 Z M 8.078125 -11.6875 "/></g></g></g><g fill="#ffffff" fill-opacity="1"><g transform="translate(113.027049, 24.190276)"><g><path d="M 5.265625 -3.203125 L 11.34375 -3.203125 L 11.34375 0 L 1.8125 0 L 1.8125 -15.875 L 5.265625 -15.875 Z M 5.265625 -3.203125 "/></g></g></g><g fill="#ffffff" fill-opacity="1"><g transform="translate(124.866625, 24.190276)"><g><path d="M 7.921875 -15.875 C 8.992188 -15.875 9.945312 -15.632812 10.78125 -15.15625 C 11.625 -14.6875 12.296875 -14.039062 12.796875 -13.21875 C 13.296875 -12.394531 13.546875 -11.457031 13.546875 -10.40625 C 13.546875 -9.363281 13.296875 -8.429688 12.796875 -7.609375 C 12.304688 -6.785156 11.640625 -6.140625 10.796875 -5.671875 C 9.953125 -5.203125 8.992188 -4.96875 7.921875 -4.96875 L 5.265625 -4.96875 L 5.265625 0 L 1.8125 0 L 1.8125 -15.875 Z M 7.78125 -8.140625 C 8.457031 -8.140625 9.003906 -8.351562 9.421875 -8.78125 C 9.835938 -9.21875 10.046875 -9.757812 10.046875 -10.40625 C 10.046875 -11.070312 9.835938 -11.617188 9.421875 -12.046875 C 9.003906 -12.484375 8.457031 -12.703125 7.78125 -12.703125 L 5.265625 -12.703125 L 5.265625 -8.140625 Z M 7.78125 -8.140625 "/></g></g></g><g fill="#ffffff" fill-opacity="1"><g transform="translate(138.974321, 24.190276)"><g><path d="M 11.234375 -15.875 L 14.65625 -15.875 L 14.65625 0 L 11.234375 0 L 11.234375 -6.5625 L 5.265625 -6.5625 L 5.265625 0 L 1.8125 0 L 1.8125 -15.875 L 5.265625 -15.875 L 5.265625 -9.75 L 11.234375 -9.75 Z M 11.234375 -15.875 "/></g></g></g><g fill="#ffffff" fill-opacity="1"><g transform="translate(155.46353, 24.190276)"><g><path d="M 12.359375 0 L 11.25 -3.015625 L 4.921875 -3.015625 L 3.828125 0 L 0.203125 0 L 6.421875 -15.875 L 9.671875 -15.875 L 16.078125 0 Z M 8.078125 -11.6875 L 6.015625 -6.015625 L 10.15625 -6.015625 Z M 8.078125 -11.6875 "/></g></g></g><g fill="#ffffff" fill-opacity="1"><g transform="translate(171.749643, 24.190276)"><g/></g></g><g fill="#ffffff" fill-opacity="1"><g transform="translate(96.741961, 47.429171)"><g><path d="M 7.078125 0.3125 C 5.867188 0.3125 4.800781 0.09375 3.875 -0.34375 C 2.957031 -0.78125 2.238281 -1.40625 1.71875 -2.21875 C 1.195312 -3.039062 0.9375 -4.019531 0.9375 -5.15625 L 4.40625 -5.15625 C 4.40625 -4.382812 4.671875 -3.8125 5.203125 -3.4375 C 5.742188 -3.0625 6.363281 -2.875 7.0625 -2.875 C 7.5 -2.875 7.910156 -2.945312 8.296875 -3.09375 C 8.679688 -3.238281 9 -3.453125 9.25 -3.734375 C 9.5 -4.015625 9.625 -4.347656 9.625 -4.734375 C 9.625 -5.148438 9.476562 -5.472656 9.1875 -5.703125 C 8.894531 -5.941406 8.507812 -6.132812 8.03125 -6.28125 C 7.550781 -6.4375 7.019531 -6.582031 6.4375 -6.71875 C 5.851562 -6.851562 5.25 -7.019531 4.625 -7.21875 C 4.007812 -7.414062 3.4375 -7.675781 2.90625 -8 C 2.375 -8.320312 1.945312 -8.757812 1.625 -9.3125 C 1.3125 -9.863281 1.15625 -10.5625 1.15625 -11.40625 C 1.15625 -12.9375 1.671875 -14.113281 2.703125 -14.9375 C 3.742188 -15.757812 5.148438 -16.171875 6.921875 -16.171875 C 8.734375 -16.171875 10.140625 -15.710938 11.140625 -14.796875 C 12.140625 -13.890625 12.640625 -12.648438 12.640625 -11.078125 L 9.234375 -11.078125 C 9.234375 -11.753906 8.988281 -12.253906 8.5 -12.578125 C 8.019531 -12.898438 7.460938 -13.0625 6.828125 -13.0625 C 6.265625 -13.0625 5.75 -12.941406 5.28125 -12.703125 C 4.8125 -12.460938 4.578125 -12.085938 4.578125 -11.578125 C 4.578125 -11.191406 4.71875 -10.890625 5 -10.671875 C 5.28125 -10.453125 5.648438 -10.269531 6.109375 -10.125 C 6.578125 -9.988281 7.085938 -9.847656 7.640625 -9.703125 C 8.242188 -9.554688 8.863281 -9.378906 9.5 -9.171875 C 10.132812 -8.972656 10.722656 -8.695312 11.265625 -8.34375 C 11.816406 -8 12.257812 -7.539062 12.59375 -6.96875 C 12.9375 -6.394531 13.109375 -5.664062 13.109375 -4.78125 C 13.109375 -3.632812 12.832031 -2.679688 12.28125 -1.921875 C 11.726562 -1.171875 11 -0.609375 10.09375 -0.234375 C 9.1875 0.128906 8.179688 0.3125 7.078125 0.3125 Z M 7.078125 0.3125 "/></g></g></g><g fill="#ffffff" fill-opacity="1"><g transform="translate(110.781611, 47.429171)"><g><path d="M 9.34375 0.34375 C 8.132812 0.34375 7.015625 0.132812 5.984375 -0.28125 C 4.960938 -0.695312 4.066406 -1.28125 3.296875 -2.03125 C 2.535156 -2.78125 1.941406 -3.65625 1.515625 -4.65625 C 1.097656 -5.664062 0.890625 -6.757812 0.890625 -7.9375 C 0.890625 -9.113281 1.097656 -10.207031 1.515625 -11.21875 C 1.941406 -12.226562 2.535156 -13.101562 3.296875 -13.84375 C 4.066406 -14.59375 4.960938 -15.175781 5.984375 -15.59375 C 7.015625 -16.007812 8.132812 -16.21875 9.34375 -16.21875 C 10.550781 -16.21875 11.671875 -16.007812 12.703125 -15.59375 C 13.734375 -15.175781 14.625 -14.59375 15.375 -13.84375 C 16.132812 -13.101562 16.722656 -12.226562 17.140625 -11.21875 C 17.566406 -10.207031 17.78125 -9.113281 17.78125 -7.9375 C 17.78125 -6.757812 17.566406 -5.664062 17.140625 -4.65625 C 16.722656 -3.65625 16.132812 -2.78125 15.375 -2.03125 C 14.625 -1.28125 13.734375 -0.695312 12.703125 -0.28125 C 11.671875 0.132812 10.550781 0.34375 9.34375 0.34375 Z M 9.34375 -2.90625 C 10.300781 -2.90625 11.148438 -3.125 11.890625 -3.5625 C 12.640625 -4 13.226562 -4.59375 13.65625 -5.34375 C 14.09375 -6.101562 14.3125 -6.96875 14.3125 -7.9375 C 14.3125 -8.894531 14.09375 -9.753906 13.65625 -10.515625 C 13.226562 -11.273438 12.640625 -11.875 11.890625 -12.3125 C 11.148438 -12.757812 10.300781 -12.984375 9.34375 -12.984375 C 8.40625 -12.984375 7.554688 -12.757812 6.796875 -12.3125 C 6.046875 -11.875 5.453125 -11.273438 5.015625 -10.515625 C 4.578125 -9.753906 4.359375 -8.894531 4.359375 -7.9375 C 4.359375 -6.988281 4.578125 -6.128906 5.015625 -5.359375 C 5.453125 -4.597656 6.046875 -4 6.796875 -3.5625 C 7.554688 -3.125 8.40625 -2.90625 9.34375 -2.90625 Z M 9.34375 -2.90625 "/></g></g></g><g fill="#ffffff" fill-opacity="1"><g transform="translate(129.448214, 47.429171)"><g><path d="M 5.265625 -3.203125 L 11.34375 -3.203125 L 11.34375 0 L 1.8125 0 L 1.8125 -15.875 L 5.265625 -15.875 Z M 5.265625 -3.203125 "/></g></g></g><g fill="#ffffff" fill-opacity="1"><g transform="translate(141.28779, 47.429171)"><g><path d="M 8.21875 0.34375 C 6.957031 0.34375 5.832031 0.078125 4.84375 -0.453125 C 3.863281 -0.992188 3.085938 -1.738281 2.515625 -2.6875 C 1.941406 -3.632812 1.65625 -4.726562 1.65625 -5.96875 L 1.65625 -15.875 L 5.109375 -15.875 L 5.109375 -6.125 C 5.109375 -5.144531 5.398438 -4.363281 5.984375 -3.78125 C 6.566406 -3.195312 7.3125 -2.90625 8.21875 -2.90625 C 9.132812 -2.90625 9.882812 -3.195312 10.46875 -3.78125 C 11.050781 -4.363281 11.34375 -5.144531 11.34375 -6.125 L 11.34375 -15.875 L 14.765625 -15.875 L 14.765625 -5.96875 C 14.765625 -4.726562 14.476562 -3.632812 13.90625 -2.6875 C 13.34375 -1.738281 12.566406 -0.992188 11.578125 -0.453125 C 10.585938 0.078125 9.46875 0.34375 8.21875 0.34375 Z M 8.21875 0.34375 "/></g></g></g><g fill="#ffffff" fill-opacity="1"><g transform="translate(157.708955, 47.429171)"><g><path d="M 12.765625 -15.875 L 12.765625 -12.6875 L 8.34375 -12.6875 L 8.34375 0 L 4.90625 0 L 4.90625 -12.6875 L 0.5 -12.6875 L 0.5 -15.875 Z M 12.765625 -15.875 "/></g></g></g><g fill="#ffffff" fill-opacity="1"><g transform="translate(170.954763, 47.429171)"><g><path d="M 1.8125 0 L 1.8125 -15.875 L 5.265625 -15.875 L 5.265625 0 Z M 1.8125 0 "/></g></g></g><g fill="#ffffff" fill-opacity="1"><g transform="translate(178.031286, 47.429171)"><g><path d="M 9.34375 0.34375 C 8.132812 0.34375 7.015625 0.132812 5.984375 -0.28125 C 4.960938 -0.695312 4.066406 -1.28125 3.296875 -2.03125 C 2.535156 -2.78125 1.941406 -3.65625 1.515625 -4.65625 C 1.097656 -5.664062 0.890625 -6.757812 0.890625 -7.9375 C 0.890625 -9.113281 1.097656 -10.207031 1.515625 -11.21875 C 1.941406 -12.226562 2.535156 -13.101562 3.296875 -13.84375 C 4.066406 -14.59375 4.960938 -15.175781 5.984375 -15.59375 C 7.015625 -16.007812 8.132812 -16.21875 9.34375 -16.21875 C 10.550781 -16.21875 11.671875 -16.007812 12.703125 -15.59375 C 13.734375 -15.175781 14.625 -14.59375 15.375 -13.84375 C 16.132812 -13.101562 16.722656 -12.226562 17.140625 -11.21875 C 17.566406 -10.207031 17.78125 -9.113281 17.78125 -7.9375 C 17.78125 -6.757812 17.566406 -5.664062 17.140625 -4.65625 C 16.722656 -3.65625 16.132812 -2.78125 15.375 -2.03125 C 14.625 -1.28125 13.734375 -0.695312 12.703125 -0.28125 C 11.671875 0.132812 10.550781 0.34375 9.34375 0.34375 Z M 9.34375 -2.90625 C 10.300781 -2.90625 11.148438 -3.125 11.890625 -3.5625 C 12.640625 -4 13.226562 -4.59375 13.65625 -5.34375 C 14.09375 -6.101562 14.3125 -6.96875 14.3125 -7.9375 C 14.3125 -8.894531 14.09375 -9.753906 13.65625 -10.515625 C 13.226562 -11.273438 12.640625 -11.875 11.890625 -12.3125 C 11.148438 -12.757812 10.300781 -12.984375 9.34375 -12.984375 C 8.40625 -12.984375 7.554688 -12.757812 6.796875 -12.3125 C 6.046875 -11.875 5.453125 -11.273438 5.015625 -10.515625 C 4.578125 -9.753906 4.359375 -8.894531 4.359375 -7.9375 C 4.359375 -6.988281 4.578125 -6.128906 5.015625 -5.359375 C 5.453125 -4.597656 6.046875 -4 6.796875 -3.5625 C 7.554688 -3.125 8.40625 -2.90625 9.34375 -2.90625 Z M 9.34375 -2.90625 "/></g></g></g><g fill="#ffffff" fill-opacity="1"><g transform="translate(196.697888, 47.429171)"><g><path d="M 11.890625 -15.875 L 15.25 -15.875 L 15.25 0 L 12.390625 0 L 5.203125 -9.921875 L 5.203125 0 L 1.8125 0 L 1.8125 -15.875 L 4.921875 -15.875 L 11.890625 -6.1875 Z M 11.890625 -15.875 "/></g></g></g><g fill="#ffffff" fill-opacity="1"><g transform="translate(213.754137, 47.429171)"><g><path d="M 7.078125 0.3125 C 5.867188 0.3125 4.800781 0.09375 3.875 -0.34375 C 2.957031 -0.78125 2.238281 -1.40625 1.71875 -2.21875 C 1.195312 -3.039062 0.9375 -4.019531 0.9375 -5.15625 L 4.40625 -5.15625 C 4.40625 -4.382812 4.671875 -3.8125 5.203125 -3.4375 C 5.742188 -3.0625 6.363281 -2.875 7.0625 -2.875 C 7.5 -2.875 7.910156 -2.945312 8.296875 -3.09375 C 8.679688 -3.238281 9 -3.453125 9.25 -3.734375 C 9.5 -4.015625 9.625 -4.347656 9.625 -4.734375 C 9.625 -5.148438 9.476562 -5.472656 9.1875 -5.703125 C 8.894531 -5.941406 8.507812 -6.132812 8.03125 -6.28125 C 7.550781 -6.4375 7.019531 -6.582031 6.4375 -6.71875 C 5.851562 -6.851562 5.25 -7.019531 4.625 -7.21875 C 4.007812 -7.414062 3.4375 -7.675781 2.90625 -8 C 2.375 -8.320312 1.945312 -8.757812 1.625 -9.3125 C 1.3125 -9.863281 1.15625 -10.5625 1.15625 -11.40625 C 1.15625 -12.9375 1.671875 -14.113281 2.703125 -14.9375 C 3.742188 -15.757812 5.148438 -16.171875 6.921875 -16.171875 C 8.734375 -16.171875 10.140625 -15.710938 11.140625 -14.796875 C 12.140625 -13.890625 12.640625 -12.648438 12.640625 -11.078125 L 9.234375 -11.078125 C 9.234375 -11.753906 8.988281 -12.253906 8.5 -12.578125 C 8.019531 -12.898438 7.460938 -13.0625 6.828125 -13.0625 C 6.265625 -13.0625 5.75 -12.941406 5.28125 -12.703125 C 4.8125 -12.460938 4.578125 -12.085938 4.578125 -11.578125 C 4.578125 -11.191406 4.71875 -10.890625 5 -10.671875 C 5.28125 -10.453125 5.648438 -10.269531 6.109375 -10.125 C 6.578125 -9.988281 7.085938 -9.847656 7.640625 -9.703125 C 8.242188 -9.554688 8.863281 -9.378906 9.5 -9.171875 C 10.132812 -8.972656 10.722656 -8.695312 11.265625 -8.34375 C 11.816406 -8 12.257812 -7.539062 12.59375 -6.96875 C 12.9375 -6.394531 13.109375 -5.664062 13.109375 -4.78125 C 13.109375 -3.632812 12.832031 -2.679688 12.28125 -1.921875 C 11.726562 -1.171875 11 -0.609375 10.09375 -0.234375 C 9.1875 0.128906 8.179688 0.3125 7.078125 0.3125 Z M 7.078125 0.3125 "/></g></g></g><path stroke-linecap="butt" transform="matrix(0, -0.75, 0.75, 0, 73.331188, 53.995994)" fill="none" stroke-linejoin="miter" d="M -0.0001328 2.501124 L 63.432162 2.501124 " stroke="#ffffff" stroke-width="5" stroke-opacity="1" stroke-miterlimit="4"/></svg>