<svg xmlns="http://www.w3.org/2000/svg" xmlns:xlink="http://www.w3.org/1999/xlink" width="200" zoomAndPan="magnify" viewBox="0 0 150 149.999998" height="200" preserveAspectRatio="xMidYMid meet" version="1.0"><defs><clipPath id="b5a0b42068"><path d="M 5.335938 2.902344 L 80 2.902344 L 80 146.902344 L 5.335938 146.902344 Z M 5.335938 2.902344 " clip-rule="nonzero"/></clipPath><clipPath id="9ea3f7867c"><path d="M 46 34 L 144.835938 34 L 144.835938 116 L 46 116 Z M 46 34 " clip-rule="nonzero"/></clipPath></defs><path fill="#000000" d="M 74.941406 64.46875 C 74.582031 63.53125 73.691406 62.90625 72.679688 62.90625 C 71.671875 62.90625 70.78125 63.53125 70.421875 64.46875 L 63.203125 83.660156 C 62.746094 84.90625 63.375 86.273438 64.625 86.753906 C 65.875 87.210938 67.246094 86.585938 67.726562 85.339844 L 68.953125 82.101562 L 76.433594 82.101562 L 77.660156 85.339844 C 78.019531 86.296875 78.933594 86.898438 79.921875 86.898438 C 80.210938 86.898438 80.5 86.851562 80.761719 86.753906 C 82.011719 86.296875 82.640625 84.90625 82.15625 83.660156 Z M 70.757812 77.300781 L 72.707031 72.144531 L 74.652344 77.300781 Z M 70.757812 77.300781 " fill-opacity="1" fill-rule="nonzero"/><path fill="#000000" d="M 87.113281 62.90625 C 85.789062 62.90625 84.707031 63.988281 84.707031 65.308594 L 84.707031 84.5 C 84.707031 85.820312 85.789062 86.898438 87.113281 86.898438 C 88.433594 86.898438 89.515625 85.820312 89.515625 84.5 L 89.515625 65.308594 C 89.515625 63.988281 88.433594 62.90625 87.113281 62.90625 Z M 87.113281 62.90625 " fill-opacity="1" fill-rule="nonzero"/><g clip-path="url(#b5a0b42068)"><path fill="#000000" d="M 77.492188 115.6875 C 54.957031 115.6875 36.605469 97.382812 36.605469 74.902344 C 36.605469 52.425781 54.957031 34.121094 77.492188 34.121094 C 78.816406 34.121094 79.898438 33.039062 79.898438 31.722656 L 79.898438 5.332031 C 79.898438 4.011719 78.816406 2.933594 77.492188 2.933594 L 64.816406 2.933594 C 63.710938 2.933594 62.746094 3.675781 62.484375 4.757812 L 59.042969 18.527344 C 56.109375 19.484375 53.273438 20.636719 50.578125 22.003906 L 38.382812 14.710938 C 37.445312 14.136719 36.21875 14.304688 35.449219 15.070312 L 17.53125 32.945312 C 16.761719 33.710938 16.59375 34.9375 17.171875 35.871094 L 24.480469 48.035156 C 23.109375 50.722656 21.933594 53.550781 20.996094 56.480469 L 7.1875 59.910156 C 6.105469 60.171875 5.359375 61.132812 5.359375 62.238281 L 5.359375 87.523438 C 5.359375 88.625 6.105469 89.585938 7.1875 89.847656 L 20.996094 93.28125 C 21.957031 96.207031 23.109375 99.039062 24.480469 101.722656 L 17.171875 113.886719 C 16.59375 114.824219 16.761719 116.046875 17.53125 116.8125 L 35.449219 134.6875 C 36.21875 135.453125 37.445312 135.621094 38.382812 135.046875 L 50.578125 127.753906 C 53.273438 129.121094 56.109375 130.296875 59.042969 131.230469 L 62.484375 145.003906 C 62.746094 146.082031 63.710938 146.824219 64.816406 146.824219 L 77.492188 146.824219 C 78.816406 146.824219 79.898438 145.746094 79.898438 144.425781 L 79.898438 118.039062 C 79.898438 116.71875 78.816406 115.636719 77.492188 115.636719 Z M 75.085938 142.074219 L 66.691406 142.074219 L 63.375 128.808594 C 63.15625 127.992188 62.53125 127.347656 61.738281 127.082031 C 58.203125 126.027344 54.785156 124.636719 51.636719 122.929688 C 50.890625 122.523438 49.976562 122.546875 49.253906 122.980469 L 37.519531 130.007812 L 22.246094 114.773438 L 29.292969 103.066406 C 29.726562 102.347656 29.75 101.4375 29.339844 100.691406 C 27.632812 97.550781 26.238281 94.144531 25.179688 90.617188 C 24.9375 89.800781 24.289062 89.175781 23.449219 88.984375 L 10.148438 85.675781 L 10.148438 64.132812 L 23.449219 60.820312 C 24.265625 60.605469 24.914062 59.980469 25.179688 59.191406 C 26.238281 55.664062 27.632812 52.257812 29.339844 49.113281 C 29.75 48.371094 29.726562 47.457031 29.292969 46.738281 L 22.246094 35.03125 L 37.519531 19.796875 L 49.253906 26.828125 C 49.976562 27.257812 50.890625 27.28125 51.636719 26.875 C 54.785156 25.171875 58.203125 23.78125 61.738281 22.722656 C 62.554688 22.484375 63.179688 21.835938 63.375 20.996094 L 66.691406 7.730469 L 75.085938 7.730469 L 75.085938 29.394531 C 51.011719 30.640625 31.792969 50.578125 31.792969 74.902344 C 31.792969 99.230469 51.011719 119.164062 75.085938 120.414062 Z M 75.085938 142.074219 " fill-opacity="1" fill-rule="nonzero"/></g><g clip-path="url(#9ea3f7867c)"><path fill="#000000" d="M 135.214844 65.308594 C 130.742188 65.308594 127.015625 68.378906 125.933594 72.503906 L 101.542969 72.503906 L 101.542969 62.90625 L 111.164062 62.90625 C 111.835938 62.90625 112.488281 62.621094 112.945312 62.117188 L 121.746094 52.496094 C 122.925781 53 124.222656 53.3125 125.59375 53.3125 C 130.910156 53.3125 135.214844 49.019531 135.214844 43.714844 C 135.214844 38.414062 130.910156 34.121094 125.59375 34.121094 C 120.28125 34.121094 115.972656 38.414062 115.972656 43.714844 C 115.972656 45.898438 116.742188 47.890625 117.972656 49.496094 L 110.105469 58.109375 L 101.542969 58.109375 L 101.542969 53.3125 C 101.542969 51.992188 100.460938 50.914062 99.136719 50.914062 L 94.328125 50.914062 L 94.328125 46.113281 C 94.328125 44.796875 93.246094 43.714844 91.921875 43.714844 C 90.601562 43.714844 89.515625 44.796875 89.515625 46.113281 L 89.515625 50.914062 L 79.898438 50.914062 L 79.898438 46.113281 C 79.898438 44.796875 78.816406 43.714844 77.492188 43.714844 C 76.167969 43.714844 75.085938 44.796875 75.085938 46.113281 L 75.085938 50.914062 L 65.464844 50.914062 L 65.464844 46.113281 C 65.464844 44.796875 64.382812 43.714844 63.0625 43.714844 C 61.738281 43.714844 60.65625 44.796875 60.65625 46.113281 L 60.65625 50.914062 L 55.84375 50.914062 C 54.523438 50.914062 53.441406 51.992188 53.441406 53.3125 L 53.441406 58.109375 L 48.628906 58.109375 C 47.308594 58.109375 46.222656 59.191406 46.222656 60.507812 C 46.222656 61.828125 47.308594 62.90625 48.628906 62.90625 L 53.441406 62.90625 L 53.441406 72.503906 L 48.628906 72.503906 C 47.308594 72.503906 46.222656 73.582031 46.222656 74.902344 C 46.222656 76.222656 47.308594 77.300781 48.628906 77.300781 L 53.441406 77.300781 L 53.441406 86.898438 L 48.628906 86.898438 C 47.308594 86.898438 46.222656 87.976562 46.222656 89.296875 C 46.222656 90.617188 47.308594 91.695312 48.628906 91.695312 L 53.441406 91.695312 L 53.441406 96.496094 C 53.441406 97.8125 54.523438 98.894531 55.84375 98.894531 L 60.65625 98.894531 L 60.65625 103.691406 C 60.65625 105.011719 61.738281 106.089844 63.0625 106.089844 C 64.382812 106.089844 65.464844 105.011719 65.464844 103.691406 L 65.464844 98.894531 L 75.085938 98.894531 L 75.085938 103.691406 C 75.085938 105.011719 76.167969 106.089844 77.492188 106.089844 C 78.816406 106.089844 79.898438 105.011719 79.898438 103.691406 L 79.898438 98.894531 L 89.515625 98.894531 L 89.515625 103.691406 C 89.515625 105.011719 90.601562 106.089844 91.921875 106.089844 C 93.246094 106.089844 94.328125 105.011719 94.328125 103.691406 L 94.328125 98.894531 L 99.136719 98.894531 C 100.460938 98.894531 101.542969 97.8125 101.542969 96.496094 L 101.542969 91.695312 L 110.105469 91.695312 L 117.972656 100.308594 C 116.742188 101.917969 115.972656 103.90625 115.972656 106.089844 C 115.972656 111.390625 120.28125 115.6875 125.59375 115.6875 C 130.910156 115.6875 135.214844 111.390625 135.214844 106.089844 C 135.214844 100.789062 130.910156 96.496094 125.59375 96.496094 C 124.222656 96.496094 122.925781 96.78125 121.746094 97.308594 L 112.945312 87.691406 C 112.488281 87.1875 111.835938 86.898438 111.164062 86.898438 L 101.542969 86.898438 L 101.542969 77.300781 L 125.933594 77.300781 C 127.015625 81.429688 130.742188 84.5 135.214844 84.5 C 140.53125 84.5 144.835938 80.203125 144.835938 74.902344 C 144.835938 69.601562 140.53125 65.308594 135.214844 65.308594 Z M 125.59375 38.917969 C 128.242188 38.917969 130.40625 41.078125 130.40625 43.714844 C 130.40625 46.355469 128.242188 48.515625 125.59375 48.515625 C 122.949219 48.515625 120.785156 46.355469 120.785156 43.714844 C 120.785156 41.078125 122.949219 38.917969 125.59375 38.917969 Z M 130.40625 106.089844 C 130.40625 108.730469 128.242188 110.886719 125.59375 110.886719 C 122.949219 110.886719 120.785156 108.730469 120.785156 106.089844 C 120.785156 103.453125 122.949219 101.292969 125.59375 101.292969 C 128.242188 101.292969 130.40625 103.453125 130.40625 106.089844 Z M 96.734375 94.09375 L 58.25 94.09375 L 58.25 55.710938 L 96.734375 55.710938 Z M 135.214844 79.703125 C 132.570312 79.703125 130.40625 77.542969 130.40625 74.902344 C 130.40625 72.265625 132.570312 70.105469 135.214844 70.105469 C 137.863281 70.105469 140.027344 72.265625 140.027344 74.902344 C 140.027344 77.542969 137.863281 79.703125 135.214844 79.703125 Z M 135.214844 79.703125 " fill-opacity="1" fill-rule="nonzero"/></g></svg>