<svg xmlns="http://www.w3.org/2000/svg" xmlns:xlink="http://www.w3.org/1999/xlink" width="200" zoomAndPan="magnify" viewBox="0 0 150 149.999998" height="200" preserveAspectRatio="xMidYMid meet" version="1.0"><defs><clipPath id="c14f2403e1"><path d="M 61 2.871094 L 86 2.871094 L 86 12 L 61 12 Z M 61 2.871094 " clip-rule="nonzero"/></clipPath><clipPath id="d79b1a293e"><path d="M 54 105 L 95 105 L 95 144.621094 L 54 144.621094 Z M 54 105 " clip-rule="nonzero"/></clipPath><clipPath id="19b5ed8e87"><path d="M 118 20 L 146.636719 20 L 146.636719 52 L 118 52 Z M 118 20 " clip-rule="nonzero"/></clipPath><clipPath id="ec2dd5e435"><path d="M 3.386719 78 L 52 78 L 52 121 L 3.386719 121 Z M 3.386719 78 " clip-rule="nonzero"/></clipPath></defs><path fill="#000000" d="M 135.210938 90.125 L 121.210938 90.125 C 118.175781 90.125 115.738281 92.578125 115.738281 95.625 L 115.738281 137.816406 C 115.738281 140.84375 118.175781 143.316406 121.210938 143.316406 L 135.210938 143.316406 C 138.222656 143.316406 140.683594 140.84375 140.683594 137.816406 L 140.683594 95.625 C 140.683594 92.578125 138.222656 90.125 135.210938 90.125 Z M 128.199219 136.914062 C 124.417969 136.914062 121.339844 133.820312 121.339844 130.023438 C 121.339844 126.226562 124.417969 123.132812 128.199219 123.132812 C 131.980469 123.132812 135.054688 126.226562 135.054688 130.023438 C 135.054688 133.820312 131.980469 136.914062 128.199219 136.914062 Z M 134.222656 110.175781 L 123.453125 110.175781 C 122.242188 110.175781 121.253906 109.179688 121.253906 107.964844 C 121.253906 106.75 122.242188 105.757812 123.453125 105.757812 L 134.222656 105.757812 C 135.429688 105.757812 136.417969 106.75 136.417969 107.964844 C 136.417969 109.179688 135.429688 110.175781 134.222656 110.175781 Z M 134.222656 100.8125 L 123.453125 100.8125 C 122.242188 100.8125 121.253906 99.820312 121.253906 98.605469 C 121.253906 97.390625 122.242188 96.394531 123.453125 96.394531 L 134.222656 96.394531 C 135.429688 96.394531 136.417969 97.390625 136.417969 98.605469 C 136.417969 99.820312 135.429688 100.8125 134.222656 100.8125 Z M 134.222656 100.8125 " fill-opacity="1" fill-rule="nonzero"/><path fill="#000000" d="M 11.5 51.390625 L 32.207031 51.390625 C 33.808594 51.390625 35.109375 50.085938 35.109375 48.476562 L 35.109375 31.070312 C 35.109375 29.460938 33.808594 28.15625 32.207031 28.15625 L 11.5 28.15625 C 9.898438 28.15625 8.601562 29.460938 8.601562 31.070312 L 8.601562 48.476562 C 8.601562 50.085938 9.898438 51.390625 11.5 51.390625 Z M 11.5 51.390625 " fill-opacity="1" fill-rule="nonzero"/><path fill="#000000" d="M 14.75 23.734375 L 14.75 21.457031 C 14.75 17.550781 17.914062 14.394531 21.78125 14.394531 C 25.671875 14.394531 28.8125 17.550781 28.8125 21.457031 L 28.8125 23.734375 L 32.199219 23.734375 C 32.550781 23.734375 32.878906 23.753906 33.210938 23.820312 L 33.210938 21.457031 C 33.210938 15.121094 28.089844 9.976562 21.78125 9.976562 C 15.496094 9.976562 10.351562 15.121094 10.351562 21.457031 L 10.351562 23.84375 C 10.726562 23.753906 11.101562 23.734375 11.496094 23.734375 Z M 14.75 23.734375 " fill-opacity="1" fill-rule="nonzero"/><g clip-path="url(#c14f2403e1)"><path fill="#000000" d="M 86 2.847656 L 61.695312 2.847656 L 73.847656 11.324219 Z M 86 2.847656 " fill-opacity="1" fill-rule="nonzero"/></g><path fill="#000000" d="M 61.363281 24.242188 L 86.332031 24.242188 C 88.265625 24.242188 89.847656 22.652344 89.847656 20.707031 C 89.804688 5.664062 89.945312 6.371094 89.738281 5.539062 C 89.605469 5.695312 89.453125 5.828125 89.296875 5.9375 L 75.101562 15.828125 C 74.726562 16.09375 74.285156 16.226562 73.847656 16.226562 C 73.40625 16.226562 72.96875 16.09375 72.59375 15.828125 C 57.71875 5.414062 58.417969 6.058594 57.957031 5.515625 C 57.890625 5.78125 57.847656 6.070312 57.847656 6.378906 L 57.847656 20.707031 C 57.847656 22.652344 59.40625 24.242188 61.363281 24.242188 Z M 61.363281 24.242188 " fill-opacity="1" fill-rule="nonzero"/><g clip-path="url(#d79b1a293e)"><path fill="#000000" d="M 54.167969 133.273438 L 71.921875 133.273438 L 71.921875 140.226562 L 65.160156 140.226562 C 63.945312 140.226562 62.960938 141.214844 62.960938 142.433594 C 62.960938 143.652344 63.945312 144.644531 65.160156 144.644531 L 83.078125 144.644531 C 84.292969 144.644531 85.277344 143.652344 85.277344 142.433594 C 85.277344 141.214844 84.292969 140.226562 83.078125 140.226562 L 76.316406 140.226562 L 76.316406 133.273438 L 94.070312 133.273438 L 94.070312 105.585938 L 54.167969 105.585938 Z M 54.167969 133.273438 " fill-opacity="1" fill-rule="nonzero"/></g><path fill="#000000" d="M 102.96875 22.960938 L 102.96875 48.769531 C 102.96875 50.226562 104.132812 51.398438 105.582031 51.398438 L 113.871094 51.398438 L 113.871094 20.378906 C 113.871094 20.355469 113.871094 20.355469 113.871094 20.332031 L 105.582031 20.332031 C 104.132812 20.332031 102.96875 21.503906 102.96875 22.960938 Z M 109.363281 33.492188 C 110.683594 33.492188 111.757812 34.574219 111.757812 35.898438 C 111.757812 37.246094 110.683594 38.328125 109.363281 38.328125 C 108.023438 38.328125 106.945312 37.246094 106.945312 35.898438 C 106.945312 34.574219 108.023438 33.492188 109.363281 33.492188 Z M 109.363281 33.492188 " fill-opacity="1" fill-rule="nonzero"/><g clip-path="url(#19b5ed8e87)"><path fill="#000000" d="M 143.582031 20.332031 L 118.265625 20.332031 C 118.265625 20.355469 118.265625 20.355469 118.265625 20.378906 L 118.265625 51.398438 L 143.582031 51.398438 C 145.011719 51.398438 146.175781 50.226562 146.175781 48.769531 L 146.175781 22.960938 C 146.175781 21.503906 145.011719 20.332031 143.582031 20.332031 Z M 143.582031 20.332031 " fill-opacity="1" fill-rule="nonzero"/></g><path fill="#000000" d="M 71.914062 90.808594 L 76.308594 90.808594 L 76.308594 101.164062 L 71.914062 101.164062 Z M 71.914062 90.808594 " fill-opacity="1" fill-rule="nonzero"/><path fill="#000000" d="M 76.15625 43.515625 L 76.308594 43.515625 L 76.308594 28.65625 L 71.914062 28.65625 L 71.914062 44.046875 C 73.277344 43.691406 74.703125 43.515625 76.15625 43.515625 Z M 76.15625 43.515625 " fill-opacity="1" fill-rule="nonzero"/><path fill="#000000" d="M 95.078125 90.015625 L 111.339844 99.464844 L 111.339844 95.625 C 111.339844 95.203125 111.363281 94.808594 111.40625 94.410156 L 99.5625 87.542969 C 98.242188 88.625 96.726562 89.484375 95.078125 90.015625 Z M 95.078125 90.015625 " fill-opacity="1" fill-rule="nonzero"/><path fill="#000000" d="M 47.121094 62.195312 C 47.320312 62.128906 47.519531 62.085938 47.714844 62.039062 C 48.242188 60.804688 48.945312 59.65625 49.804688 58.640625 L 38.527344 52.105469 C 37.757812 53.472656 36.550781 54.578125 35.078125 55.21875 Z M 47.121094 62.195312 " fill-opacity="1" fill-rule="nonzero"/><path fill="#000000" d="M 40.550781 76.351562 C 40.550781 81.894531 45.035156 86.398438 50.550781 86.398438 L 90.460938 86.398438 C 96.023438 86.398438 100.460938 81.835938 100.460938 76.351562 C 100.460938 69.628906 94.027344 64.914062 87.824219 66.660156 C 91.964844 58.230469 85.839844 47.933594 76.152344 47.933594 C 69.582031 47.933594 64.023438 52.882812 63.273438 59.460938 C 58.058594 56.738281 51.558594 60.289062 51.164062 66.351562 C 46.886719 65.394531 40.550781 69.914062 40.550781 76.351562 Z M 40.550781 76.351562 " fill-opacity="1" fill-rule="nonzero"/><path fill="#000000" d="M 103.78125 55.570312 L 93.515625 61.511719 C 93.515625 61.753906 93.515625 61.976562 93.496094 62.195312 C 95.101562 62.546875 96.617188 63.167969 97.980469 64.027344 L 98 64.027344 L 112.15625 55.816406 L 105.582031 55.816406 C 104.96875 55.816406 104.351562 55.726562 103.78125 55.570312 Z M 103.78125 55.570312 " fill-opacity="1" fill-rule="nonzero"/><g clip-path="url(#ec2dd5e435)"><path fill="#000000" d="M 34.507812 100.835938 L 51.78125 90.808594 L 50.550781 90.808594 C 48.574219 90.808594 46.683594 90.414062 44.96875 89.664062 C 38.265625 93.59375 32.726562 96.726562 32.109375 97.191406 L 24 97.191406 L 24 93.769531 C 27.167969 92.796875 29.496094 89.882812 29.496094 86.394531 C 29.496094 82.132812 26.023438 78.667969 21.804688 78.667969 C 17.5625 78.667969 14.109375 82.132812 14.109375 86.394531 C 14.109375 89.882812 16.441406 92.820312 19.605469 93.769531 L 19.605469 97.191406 L 11.320312 97.191406 C 10.027344 97.191406 9.121094 98.273438 9.121094 99.398438 L 9.121094 105.183594 C 5.957031 106.15625 3.628906 109.070312 3.628906 112.558594 C 3.628906 116.820312 7.078125 120.285156 11.320312 120.285156 C 15.5625 120.285156 19.011719 116.820312 19.011719 112.558594 C 19.011719 109.070312 16.683594 106.132812 13.519531 105.183594 L 13.519531 101.605469 L 21.757812 101.605469 C 21.78125 101.605469 21.78125 101.605469 21.804688 101.605469 L 30.066406 101.605469 L 30.066406 105.183594 C 26.902344 106.15625 24.574219 109.070312 24.574219 112.558594 C 24.574219 116.820312 28.023438 120.285156 32.265625 120.285156 C 36.507812 120.285156 39.957031 116.820312 39.957031 112.558594 C 39.957031 109.070312 37.628906 106.15625 34.460938 105.183594 L 34.460938 100.855469 C 34.460938 100.855469 34.484375 100.835938 34.507812 100.835938 Z M 34.507812 100.835938 " fill-opacity="1" fill-rule="nonzero"/></g></svg>