<svg xmlns="http://www.w3.org/2000/svg" xmlns:xlink="http://www.w3.org/1999/xlink" width="200" zoomAndPan="magnify" viewBox="0 0 150 149.999998" height="200" preserveAspectRatio="xMidYMid meet" version="1.0"><defs><clipPath id="e31ef83e16"><path d="M 45 131 L 105 131 L 105 146.894531 L 45 146.894531 Z M 45 131 " clip-rule="nonzero"/></clipPath><clipPath id="3b70b4b112"><path d="M 7.339844 38 L 142.339844 38 L 142.339844 125 L 7.339844 125 Z M 7.339844 38 " clip-rule="nonzero"/></clipPath><clipPath id="616959a379"><path d="M 7.339844 110 L 142.339844 110 L 142.339844 116 L 7.339844 116 Z M 7.339844 110 " clip-rule="nonzero"/></clipPath><clipPath id="fd5eaa1eee"><path d="M 36 2.894531 L 114 2.894531 L 114 80 L 36 80 Z M 36 2.894531 " clip-rule="nonzero"/></clipPath></defs><g clip-path="url(#e31ef83e16)"><path fill="#000000" d="M 101.816406 146.945312 L 47.867188 146.945312 C 47.117188 146.945312 46.425781 146.574219 46.007812 145.957031 C 45.585938 145.339844 45.5 144.554688 45.777344 143.863281 L 50.273438 132.613281 C 50.617188 131.757812 51.441406 131.195312 52.359375 131.195312 L 97.320312 131.195312 C 98.238281 131.195312 99.066406 131.757812 99.410156 132.613281 L 103.902344 143.863281 C 104.179688 144.554688 104.097656 145.339844 103.679688 145.957031 C 103.257812 146.574219 102.5625 146.945312 101.816406 146.945312 Z M 51.1875 142.445312 L 98.496094 142.445312 L 95.796875 135.695312 L 53.886719 135.695312 Z M 51.1875 142.445312 " fill-opacity="1" fill-rule="nonzero"/></g><path fill="#000000" d="M 86.082031 135.75 L 63.601562 135.75 C 62.363281 135.75 61.34375 134.632812 61.34375 133.386719 L 61.34375 122.136719 C 61.34375 120.894531 62.347656 119.890625 63.59375 119.890625 C 64.832031 119.890625 65.84375 120.894531 65.84375 122.136719 L 65.84375 131.246094 L 83.839844 131.246094 L 83.839844 122.136719 C 83.839844 120.894531 84.847656 119.890625 86.089844 119.890625 C 87.328125 119.890625 88.339844 120.894531 88.339844 122.136719 L 88.339844 133.386719 C 88.339844 134.632812 87.320312 135.75 86.082031 135.75 Z M 86.082031 135.75 " fill-opacity="1" fill-rule="nonzero"/><g clip-path="url(#3b70b4b112)"><path fill="#000000" d="M 140.03125 124.488281 L 9.648438 124.488281 C 8.410156 124.488281 7.347656 123.382812 7.347656 122.136719 L 7.347656 41.144531 C 7.347656 39.898438 8.410156 38.921875 9.648438 38.921875 L 38.875 38.921875 C 40.113281 38.921875 41.121094 39.933594 41.121094 41.175781 C 41.121094 42.414062 40.113281 43.425781 38.875 43.425781 L 11.847656 43.425781 L 11.847656 119.984375 L 137.835938 119.984375 L 137.835938 43.425781 L 110.808594 43.425781 C 109.566406 43.425781 108.5625 42.414062 108.5625 41.175781 C 108.5625 39.933594 109.566406 38.921875 110.808594 38.921875 L 140.03125 38.921875 C 141.269531 38.921875 142.335938 39.898438 142.335938 41.144531 L 142.335938 122.136719 C 142.335938 123.382812 141.269531 124.488281 140.03125 124.488281 Z M 140.03125 124.488281 " fill-opacity="1" fill-rule="nonzero"/></g><g clip-path="url(#616959a379)"><path fill="#000000" d="M 140.03125 115.480469 L 9.648438 115.480469 C 8.410156 115.480469 7.40625 114.472656 7.40625 113.230469 C 7.40625 111.992188 8.410156 110.980469 9.648438 110.980469 L 140.03125 110.980469 C 141.269531 110.980469 142.277344 111.992188 142.277344 113.230469 C 142.277344 114.472656 141.269531 115.480469 140.03125 115.480469 Z M 140.03125 115.480469 " fill-opacity="1" fill-rule="nonzero"/></g><path fill="#000000" d="M 96.195312 106.449219 L 91.699219 106.449219 C 90.457031 106.449219 89.453125 105.441406 89.453125 104.195312 C 89.453125 102.957031 90.457031 101.949219 91.699219 101.949219 L 96.195312 101.949219 C 97.433594 101.949219 98.445312 100.9375 98.445312 99.699219 C 98.445312 98.457031 97.433594 97.449219 96.195312 97.449219 C 92.480469 97.449219 89.453125 94.421875 89.453125 90.699219 C 89.453125 86.980469 92.480469 83.949219 96.195312 83.949219 L 100.691406 83.949219 C 101.933594 83.949219 102.941406 84.957031 102.941406 86.199219 C 102.941406 87.441406 101.933594 88.449219 100.691406 88.449219 L 96.195312 88.449219 C 94.957031 88.449219 93.945312 89.460938 93.945312 90.699219 C 93.945312 91.941406 94.957031 92.953125 96.195312 92.953125 C 99.914062 92.953125 102.941406 95.976562 102.941406 99.699219 C 102.941406 103.417969 99.914062 106.449219 96.195312 106.449219 Z M 96.195312 106.449219 " fill-opacity="1" fill-rule="nonzero"/><path fill="#000000" d="M 60.230469 106.449219 L 57.980469 106.449219 C 51.785156 106.449219 46.742188 101.40625 46.742188 95.199219 C 46.742188 88.996094 51.785156 83.949219 57.980469 83.949219 L 60.230469 83.949219 C 61.46875 83.949219 62.476562 84.957031 62.476562 86.199219 C 62.476562 87.441406 61.46875 88.449219 60.230469 88.449219 L 57.980469 88.449219 C 54.261719 88.449219 51.238281 91.476562 51.238281 95.199219 C 51.238281 98.917969 54.261719 101.949219 57.980469 101.949219 L 60.230469 101.949219 C 61.46875 101.949219 62.476562 102.957031 62.476562 104.195312 C 62.476562 105.441406 61.46875 106.449219 60.230469 106.449219 Z M 60.230469 106.449219 " fill-opacity="1" fill-rule="nonzero"/><path fill="#000000" d="M 82.714844 106.386719 C 81.476562 106.386719 80.464844 105.378906 80.464844 104.140625 L 80.464844 91.570312 L 77.554688 94.480469 C 76.675781 95.355469 75.253906 95.355469 74.375 94.480469 L 71.464844 91.570312 L 71.464844 104.140625 C 71.464844 105.378906 70.457031 106.386719 69.214844 106.386719 C 67.976562 106.386719 66.964844 105.378906 66.964844 104.140625 L 66.964844 86.140625 C 66.964844 85.230469 67.515625 84.410156 68.359375 84.0625 C 69.199219 83.710938 70.164062 83.90625 70.808594 84.546875 L 75.964844 89.707031 L 81.121094 84.546875 C 81.761719 83.90625 82.734375 83.710938 83.570312 84.0625 C 84.410156 84.410156 84.964844 85.230469 84.964844 86.140625 L 84.964844 104.140625 C 84.964844 105.378906 83.953125 106.386719 82.714844 106.386719 Z M 82.714844 106.386719 " fill-opacity="1" fill-rule="nonzero"/><g clip-path="url(#fd5eaa1eee)"><path fill="#000000" d="M 79.335938 79.453125 L 70.347656 79.453125 C 69.101562 79.453125 68.089844 78.382812 68.089844 77.140625 L 68.089844 71.910156 C 64.4375 71.121094 61 69.675781 57.871094 67.671875 L 54.175781 71.371094 C 53.296875 72.246094 51.878906 72.246094 51 71.371094 L 44.640625 65.007812 C 43.761719 64.128906 43.761719 62.703125 44.640625 61.824219 L 48.335938 58.144531 C 46.332031 55.015625 44.890625 51.589844 44.09375 47.929688 L 38.875 47.929688 C 37.636719 47.929688 36.59375 46.882812 36.59375 45.644531 L 36.59375 36.644531 C 36.59375 35.398438 37.636719 34.417969 38.875 34.417969 L 44.09375 34.417969 C 44.890625 30.761719 46.332031 27.304688 48.335938 24.171875 L 44.640625 20.46875 C 43.761719 19.589844 43.761719 18.160156 44.640625 17.28125 L 51 10.917969 C 51.878906 10.042969 53.300781 10.035156 54.179688 10.917969 L 57.871094 14.613281 C 61 12.609375 64.4375 11.167969 68.089844 10.371094 L 68.089844 5.144531 C 68.089844 3.902344 69.101562 2.894531 70.347656 2.894531 L 79.335938 2.894531 C 80.578125 2.894531 81.589844 3.902344 81.589844 5.144531 L 81.589844 10.371094 C 85.246094 11.167969 88.683594 12.609375 91.8125 14.613281 L 95.507812 10.917969 C 96.386719 10.035156 97.804688 10.035156 98.683594 10.917969 L 105.042969 17.28125 C 105.921875 18.15625 105.921875 19.582031 105.042969 20.460938 L 101.347656 24.171875 C 103.351562 27.304688 104.792969 30.761719 105.585938 34.417969 L 110.808594 34.417969 C 112.050781 34.417969 113.085938 35.398438 113.085938 36.644531 L 113.085938 45.644531 C 113.085938 46.882812 112.050781 47.929688 110.808594 47.929688 L 105.585938 47.929688 C 104.792969 51.589844 103.351562 55.015625 101.347656 58.140625 L 105.042969 61.832031 C 105.921875 62.710938 105.921875 64.132812 105.042969 65.011719 L 98.683594 71.371094 C 97.804688 72.25 96.382812 72.25 95.507812 71.371094 L 91.8125 67.671875 C 88.683594 69.675781 85.246094 71.121094 81.589844 71.910156 L 81.589844 77.140625 C 81.589844 78.382812 80.578125 79.453125 79.335938 79.453125 Z M 72.589844 74.949219 L 77.089844 74.949219 L 77.089844 70.046875 C 77.089844 68.933594 77.898438 67.992188 78.992188 67.820312 C 83.21875 67.171875 87.285156 65.480469 90.753906 62.945312 C 91.648438 62.289062 92.882812 62.386719 93.667969 63.167969 L 97.09375 66.59375 L 100.273438 63.414062 L 96.847656 59.984375 C 96.066406 59.203125 95.96875 57.960938 96.621094 57.070312 C 99.15625 53.597656 100.84375 49.546875 101.5 45.316406 C 101.667969 44.21875 102.613281 43.425781 103.71875 43.425781 L 108.585938 43.425781 L 108.585938 38.921875 L 103.71875 38.921875 C 102.613281 38.921875 101.667969 38.101562 101.496094 37 C 100.84375 32.769531 99.15625 28.691406 96.621094 25.226562 C 95.96875 24.332031 96.066406 23.085938 96.847656 22.300781 L 100.273438 18.871094 L 97.09375 15.6875 L 93.667969 19.117188 C 92.882812 19.902344 91.648438 20 90.753906 19.34375 C 87.285156 16.800781 83.21875 15.117188 78.992188 14.460938 C 77.898438 14.292969 77.089844 13.347656 77.089844 12.238281 L 77.089844 7.398438 L 72.589844 7.398438 L 72.589844 12.238281 C 72.589844 13.347656 71.78125 14.292969 70.6875 14.460938 C 66.460938 15.117188 62.398438 16.800781 58.929688 19.34375 C 58.035156 19.992188 56.796875 19.902344 56.011719 19.113281 L 52.589844 15.6875 L 49.40625 18.867188 L 52.835938 22.296875 C 53.617188 23.082031 53.714844 24.320312 53.058594 25.21875 C 50.523438 28.683594 48.835938 32.769531 48.1875 37 C 48.015625 38.101562 47.070312 38.921875 45.960938 38.921875 L 41.09375 38.921875 L 41.09375 43.425781 L 45.960938 43.425781 C 47.070312 43.425781 48.015625 44.21875 48.1875 45.316406 C 48.835938 49.546875 50.523438 53.605469 53.058594 57.078125 C 53.714844 57.96875 53.617188 59.207031 52.835938 59.988281 L 49.40625 63.414062 L 52.589844 66.597656 L 56.011719 63.167969 C 56.796875 62.386719 58.035156 62.289062 58.929688 62.945312 C 62.398438 65.480469 66.460938 67.171875 70.6875 67.820312 C 71.78125 67.992188 72.589844 68.933594 72.589844 70.046875 Z M 72.589844 74.949219 " fill-opacity="1" fill-rule="nonzero"/></g><path fill="#000000" d="M 74.839844 61.390625 C 63.683594 61.390625 54.609375 52.304688 54.609375 41.144531 C 54.609375 29.976562 63.683594 20.894531 74.839844 20.894531 C 85.996094 20.894531 95.070312 29.976562 95.070312 41.144531 C 95.070312 52.304688 85.996094 61.390625 74.839844 61.390625 Z M 74.839844 25.394531 C 66.164062 25.394531 59.105469 32.457031 59.105469 41.144531 C 59.105469 49.824219 66.164062 56.894531 74.839844 56.894531 C 83.519531 56.894531 90.578125 49.824219 90.578125 41.144531 C 90.578125 32.457031 83.519531 25.394531 74.839844 25.394531 Z M 74.839844 25.394531 " fill-opacity="1" fill-rule="nonzero"/></svg>