<svg xmlns="http://www.w3.org/2000/svg" xmlns:xlink="http://www.w3.org/1999/xlink" width="200" zoomAndPan="magnify" viewBox="0 0 150 149.999998" height="200" preserveAspectRatio="xMidYMid meet" version="1.0"><defs><clipPath id="b62f092574"><path d="M 1.035156 7.5 L 150 7.5 L 150 142.5 L 1.035156 142.5 Z M 1.035156 7.5 " clip-rule="nonzero"/></clipPath></defs><g clip-path="url(#b62f092574)"><path fill="#100f0d" d="M 141.664062 98.175781 L 9.65625 98.175781 L 9.65625 15.945312 L 141.664062 15.945312 Z M 90.167969 111.722656 L 61.148438 111.722656 C 59.597656 111.722656 58.339844 110.46875 58.339844 108.921875 C 58.339844 107.375 59.597656 106.117188 61.148438 106.117188 L 90.167969 106.117188 C 91.722656 106.117188 92.980469 107.375 92.980469 108.921875 C 92.980469 110.46875 91.722656 111.722656 90.167969 111.722656 Z M 145.273438 7.539062 L 6.046875 7.539062 C 3.390625 7.539062 1.230469 9.699219 1.230469 12.347656 L 1.230469 114.859375 C 1.230469 117.507812 3.390625 119.667969 6.046875 119.667969 L 70.976562 119.667969 L 70.976562 132.578125 L 63.132812 132.578125 C 62.917969 132.578125 62.703125 132.644531 62.527344 132.769531 L 51.273438 140.628906 C 50.421875 141.226562 50.839844 142.558594 51.882812 142.558594 L 99.433594 142.558594 C 100.476562 142.558594 100.894531 141.226562 100.046875 140.628906 L 88.792969 132.769531 C 88.613281 132.644531 88.402344 132.578125 88.183594 132.578125 L 80.34375 132.578125 L 80.34375 119.667969 L 145.273438 119.667969 C 147.925781 119.667969 150.089844 117.507812 150.089844 114.859375 L 150.089844 12.347656 C 150.089844 9.699219 147.925781 7.539062 145.273438 7.539062 " fill-opacity="1" fill-rule="nonzero"/></g><path fill="#100f0d" d="M 41.332031 37.335938 C 47.28125 37.335938 52.121094 42.167969 52.121094 48.101562 C 52.121094 54.039062 47.28125 58.871094 41.332031 58.871094 C 35.386719 58.871094 30.546875 54.039062 30.546875 48.101562 C 30.546875 42.167969 35.386719 37.335938 41.332031 37.335938 Z M 25.652344 57.273438 L 22.261719 61.699219 L 27.714844 67.136719 L 32.144531 63.757812 C 33.566406 64.59375 35.109375 65.242188 36.746094 65.667969 L 37.484375 71.175781 L 45.183594 71.175781 L 45.921875 65.667969 C 47.558594 65.242188 49.101562 64.59375 50.523438 63.757812 L 54.953125 67.136719 L 60.40625 61.699219 L 57.015625 57.273438 C 57.859375 55.855469 58.503906 54.316406 58.9375 52.683594 L 64.453125 51.949219 L 64.453125 44.257812 L 58.9375 43.523438 C 58.503906 41.890625 57.859375 40.351562 57.015625 38.929688 L 60.40625 34.511719 L 54.953125 29.070312 L 50.523438 32.453125 C 49.101562 31.613281 47.558594 30.964844 45.921875 30.535156 L 45.183594 25.03125 L 37.484375 25.03125 L 36.746094 30.535156 C 35.109375 30.964844 33.566406 31.613281 32.144531 32.453125 L 27.714844 29.070312 L 22.261719 34.511719 L 25.652344 38.929688 C 24.808594 40.351562 24.164062 41.890625 23.730469 43.523438 L 18.214844 44.257812 L 18.214844 51.949219 L 23.730469 52.683594 C 24.164062 54.316406 24.808594 55.855469 25.652344 57.273438 " fill-opacity="1" fill-rule="nonzero"/><path fill="#100f0d" d="M 117.582031 63.277344 L 127.226562 72.902344 L 119.800781 80.3125 L 121.222656 84.761719 L 133.101562 72.902344 L 120.519531 60.347656 L 117.582031 63.277344 " fill-opacity="1" fill-rule="nonzero"/><path fill="#100f0d" d="M 104.699219 65.492188 L 103.28125 61.042969 L 91.398438 72.902344 L 103.976562 85.460938 L 106.917969 82.523438 L 97.277344 72.902344 L 104.699219 65.492188 " fill-opacity="1" fill-rule="nonzero"/><path fill="#100f0d" d="M 105.28125 56.796875 L 115.875 90.074219 L 119.222656 89.007812 L 108.625 55.734375 L 105.28125 56.796875 " fill-opacity="1" fill-rule="nonzero"/><path fill="#100f0d" d="M 133.101562 23.050781 L 70.582031 23.050781 L 70.582031 28.003906 L 133.101562 28.003906 L 133.101562 23.050781 " fill-opacity="1" fill-rule="nonzero"/><path fill="#100f0d" d="M 80.738281 76.535156 L 18.214844 76.535156 L 18.214844 81.488281 L 80.738281 81.488281 L 80.738281 76.535156 " fill-opacity="1" fill-rule="nonzero"/><path fill="#100f0d" d="M 44.019531 90.402344 L 80.738281 90.402344 L 80.738281 85.449219 L 44.019531 85.449219 L 44.019531 90.402344 " fill-opacity="1" fill-rule="nonzero"/><path fill="#100f0d" d="M 85.46875 37.90625 L 133.101562 37.90625 L 133.101562 32.953125 L 85.46875 32.953125 L 85.46875 37.90625 " fill-opacity="1" fill-rule="nonzero"/><path fill="#100f0d" d="M 92.414062 47.8125 L 133.101562 47.8125 L 133.101562 42.859375 L 92.414062 42.859375 L 92.414062 47.8125 " fill-opacity="1" fill-rule="nonzero"/></svg>