<svg xmlns="http://www.w3.org/2000/svg" xmlns:xlink="http://www.w3.org/1999/xlink" width="200" zoomAndPan="magnify" viewBox="0 0 150 149.999998" height="200" preserveAspectRatio="xMidYMid meet" version="1.0"><defs><clipPath id="a7e35a1224"><path d="M 6.351562 6.351562 L 143.601562 6.351562 L 143.601562 143.601562 L 6.351562 143.601562 Z M 6.351562 6.351562 " clip-rule="nonzero"/></clipPath></defs><g clip-path="url(#a7e35a1224)"><path fill="#040606" d="M 134.449219 107 L 84.125 107 C 81.605469 107 79.550781 104.945312 79.550781 102.425781 L 79.550781 56.675781 L 139.027344 56.675781 L 139.027344 102.425781 C 139.027344 104.945312 136.96875 107 134.449219 107 Z M 111.574219 120.726562 L 38.375 120.726562 L 38.375 107 C 39.296875 107 40.214844 106.964844 41.128906 106.882812 C 42.621094 106.742188 43.898438 105.785156 44.480469 104.355469 L 45.972656 100.628906 C 47.765625 100.09375 49.492188 99.378906 51.136719 98.484375 L 54.84375 100.066406 C 56.238281 100.664062 57.835938 100.441406 58.988281 99.476562 C 59.695312 98.894531 60.367188 98.269531 61.019531 97.617188 C 61.671875 96.964844 62.296875 96.296875 62.886719 95.589844 C 63.84375 94.4375 64.066406 92.847656 63.46875 91.445312 L 61.886719 87.734375 C 62.777344 86.089844 63.492188 84.367188 64.03125 82.570312 L 67.757812 81.078125 C 67.765625 81.070312 67.765625 81.070312 67.765625 81.070312 C 69.1875 80.496094 70.140625 79.21875 70.285156 77.726562 C 70.363281 76.816406 70.402344 75.894531 70.402344 74.976562 C 70.402344 74.054688 70.363281 73.136719 70.285156 72.222656 C 70.140625 70.730469 69.1875 69.453125 67.757812 68.871094 L 64.03125 67.378906 C 63.492188 65.585938 62.777344 63.859375 61.886719 62.214844 L 63.46875 58.507812 C 64.066406 57.105469 63.84375 55.515625 62.878906 54.363281 C 62.296875 53.65625 61.671875 52.984375 61.019531 52.332031 C 60.367188 51.679688 59.695312 51.054688 58.988281 50.464844 C 57.835938 49.507812 56.238281 49.285156 54.84375 49.886719 L 51.136719 51.464844 C 49.492188 50.574219 47.765625 49.859375 45.972656 49.320312 L 44.46875 45.585938 C 43.898438 44.167969 42.621094 43.210938 41.128906 43.066406 C 40.214844 42.988281 39.296875 42.941406 38.375 42.941406 L 38.375 29.226562 L 111.574219 29.226562 L 111.574219 33.800781 L 84.125 33.800781 C 79.078125 33.800781 74.976562 37.902344 74.976562 42.949219 L 74.976562 102.425781 C 74.976562 107.472656 79.078125 111.574219 84.125 111.574219 L 111.574219 111.574219 Z M 107 139.027344 L 42.949219 139.027344 C 40.429688 139.027344 38.375 136.96875 38.375 134.449219 L 38.375 125.300781 L 111.574219 125.300781 L 111.574219 134.449219 C 111.574219 136.96875 109.519531 139.027344 107 139.027344 Z M 26.945312 93.972656 C 26.3125 93.589844 25.535156 93.527344 24.855469 93.820312 L 20.414062 95.734375 C 19.914062 95.304688 19.433594 94.855469 18.96875 94.382812 C 18.503906 93.917969 18.046875 93.4375 17.617188 92.9375 L 19.53125 88.488281 C 19.816406 87.808594 19.761719 87.039062 19.378906 86.40625 C 18.234375 84.511719 17.386719 82.464844 16.851562 80.320312 C 16.671875 79.605469 16.160156 79.023438 15.484375 78.746094 L 10.996094 76.949219 C 10.953125 76.296875 10.925781 75.636719 10.925781 74.976562 C 10.925781 74.316406 10.953125 73.652344 10.996094 73 L 15.484375 71.203125 C 16.160156 70.929688 16.671875 70.347656 16.851562 69.632812 C 17.386719 67.488281 18.234375 65.441406 19.378906 63.546875 C 19.761719 62.914062 19.816406 62.136719 19.53125 61.457031 L 17.617188 57.015625 C 18.046875 56.515625 18.503906 56.03125 18.96875 55.566406 C 19.433594 55.09375 19.914062 54.648438 20.414062 54.21875 L 24.867188 56.128906 C 25.535156 56.417969 26.3125 56.363281 26.945312 55.980469 C 28.839844 54.835938 30.886719 53.984375 33.03125 53.449219 C 33.746094 53.269531 34.328125 52.761719 34.605469 52.082031 L 36.402344 47.597656 C 37.707031 47.5 39.035156 47.5 40.351562 47.597656 L 42.148438 52.082031 C 42.421875 52.761719 43.003906 53.269531 43.71875 53.449219 C 45.863281 53.984375 47.910156 54.835938 49.804688 55.980469 C 50.4375 56.363281 51.207031 56.417969 51.886719 56.128906 L 56.335938 54.21875 C 56.835938 54.648438 57.320312 55.09375 57.785156 55.566406 C 58.257812 56.03125 58.703125 56.515625 59.132812 57.015625 L 57.222656 61.457031 C 56.933594 62.136719 56.988281 62.914062 57.371094 63.546875 C 58.515625 65.441406 59.367188 67.488281 59.902344 69.632812 C 60.082031 70.347656 60.589844 70.929688 61.269531 71.203125 L 65.753906 73 C 65.800781 73.652344 65.824219 74.316406 65.824219 74.976562 C 65.824219 75.636719 65.800781 76.296875 65.753906 76.949219 L 61.269531 78.746094 C 60.589844 79.023438 60.082031 79.605469 59.902344 80.320312 C 59.367188 82.464844 58.515625 84.511719 57.371094 86.40625 C 56.988281 87.039062 56.933594 87.808594 57.222656 88.488281 L 59.132812 92.9375 C 58.703125 93.4375 58.257812 93.917969 57.785156 94.382812 C 57.320312 94.855469 56.835938 95.304688 56.335938 95.734375 L 51.894531 93.820312 C 51.207031 93.527344 50.4375 93.589844 49.804688 93.972656 C 47.910156 95.117188 45.863281 95.964844 43.71875 96.5 C 43.003906 96.679688 42.421875 97.191406 42.148438 97.867188 L 40.351562 102.355469 C 39.046875 102.453125 37.714844 102.453125 36.402344 102.355469 L 34.605469 97.867188 C 34.328125 97.191406 33.746094 96.679688 33.03125 96.5 C 30.886719 95.964844 28.839844 95.117188 26.945312 93.972656 Z M 42.949219 10.925781 L 107 10.925781 C 109.519531 10.925781 111.574219 12.980469 111.574219 15.5 L 111.574219 24.652344 L 38.375 24.652344 L 38.375 15.5 C 38.375 12.980469 40.429688 10.925781 42.949219 10.925781 Z M 139.027344 42.949219 L 139.027344 52.101562 L 79.550781 52.101562 L 79.550781 42.949219 C 79.550781 40.429688 81.605469 38.375 84.125 38.375 L 134.449219 38.375 C 136.96875 38.375 139.027344 40.429688 139.027344 42.949219 Z M 134.449219 33.800781 L 116.152344 33.800781 L 116.152344 15.5 C 116.152344 10.453125 112.050781 6.351562 107 6.351562 L 42.949219 6.351562 C 37.902344 6.351562 33.800781 10.453125 33.800781 15.5 L 33.800781 43.738281 C 33.140625 44.183594 32.59375 44.808594 32.273438 45.597656 L 30.78125 49.320312 C 28.984375 49.859375 27.25 50.574219 25.617188 51.464844 L 21.90625 49.886719 C 20.503906 49.285156 18.914062 49.507812 17.761719 50.472656 C 17.054688 51.054688 16.386719 51.679688 15.734375 52.332031 C 15.082031 52.984375 14.457031 53.65625 13.875 54.363281 C 12.910156 55.515625 12.6875 57.105469 13.285156 58.507812 L 14.875 62.214844 C 13.972656 63.859375 13.257812 65.585938 12.722656 67.378906 L 8.988281 68.882812 C 7.566406 69.453125 6.609375 70.730469 6.476562 72.222656 C 6.386719 73.136719 6.351562 74.054688 6.351562 74.976562 C 6.351562 75.894531 6.386719 76.816406 6.476562 77.726562 C 6.609375 79.21875 7.566406 80.496094 8.996094 81.078125 L 12.722656 82.570312 C 13.257812 84.367188 13.972656 86.089844 14.875 87.734375 L 13.285156 91.445312 C 12.6875 92.847656 12.910156 94.4375 13.875 95.589844 C 14.457031 96.296875 15.082031 96.964844 15.734375 97.617188 C 16.386719 98.269531 17.054688 98.894531 17.761719 99.484375 C 18.914062 100.441406 20.503906 100.664062 21.90625 100.066406 L 25.617188 98.484375 C 27.25 99.378906 28.984375 100.09375 30.78125 100.628906 L 32.28125 104.363281 C 32.59375 105.152344 33.140625 105.769531 33.800781 106.214844 L 33.800781 134.449219 C 33.800781 139.5 37.902344 143.601562 42.949219 143.601562 L 107 143.601562 C 112.050781 143.601562 116.152344 139.5 116.152344 134.449219 L 116.152344 111.574219 L 134.449219 111.574219 C 139.5 111.574219 143.601562 107.472656 143.601562 102.425781 L 143.601562 42.949219 C 143.601562 37.902344 139.5 33.800781 134.449219 33.800781 " fill-opacity="1" fill-rule="nonzero"/></g><path fill="#040606" d="M 24.652344 74.976562 C 24.652344 69.015625 28.484375 63.941406 33.800781 62.046875 L 33.800781 67.09375 C 31.074219 68.683594 29.226562 71.605469 29.226562 74.976562 C 29.226562 78.34375 31.074219 81.265625 33.800781 82.855469 L 33.800781 87.90625 C 28.484375 86.011719 24.652344 80.9375 24.652344 74.976562 Z M 38.375 70.402344 C 40.894531 70.402344 42.949219 72.457031 42.949219 74.976562 C 42.949219 77.496094 40.894531 79.550781 38.375 79.550781 C 35.855469 79.550781 33.800781 77.496094 33.800781 74.976562 C 33.800781 72.457031 35.855469 70.402344 38.375 70.402344 Z M 52.101562 74.976562 C 52.101562 82.542969 45.945312 88.699219 38.375 88.699219 L 38.375 84.125 C 43.425781 84.125 47.527344 80.023438 47.527344 74.976562 C 47.527344 69.925781 43.425781 65.824219 38.375 65.824219 L 38.375 61.25 C 45.945312 61.25 52.101562 67.40625 52.101562 74.976562 Z M 56.675781 74.976562 C 56.675781 64.886719 48.464844 56.675781 38.375 56.675781 C 28.289062 56.675781 20.074219 64.886719 20.074219 74.976562 C 20.074219 85.0625 28.289062 93.277344 38.375 93.277344 C 48.464844 93.277344 56.675781 85.0625 56.675781 74.976562 " fill-opacity="1" fill-rule="nonzero"/><path fill="#040606" d="M 88.699219 74.976562 L 88.699219 65.824219 L 129.875 65.824219 L 129.882812 74.976562 Z M 129.875 61.25 L 88.699219 61.25 C 86.179688 61.25 84.125 63.304688 84.125 65.824219 L 84.125 74.976562 C 84.125 77.496094 86.179688 79.550781 88.699219 79.550781 L 129.875 79.550781 C 132.394531 79.550781 134.449219 77.496094 134.449219 74.976562 L 134.449219 65.824219 C 134.449219 63.304688 132.394531 61.25 129.875 61.25 " fill-opacity="1" fill-rule="nonzero"/><path fill="#040606" d="M 65.824219 20.074219 L 68.113281 20.074219 C 69.375 20.074219 70.402344 19.046875 70.402344 17.789062 C 70.402344 16.527344 69.375 15.5 68.113281 15.5 L 65.824219 15.5 C 64.566406 15.5 63.539062 16.527344 63.539062 17.789062 C 63.539062 19.046875 64.566406 20.074219 65.824219 20.074219 " fill-opacity="1" fill-rule="nonzero"/><path fill="#040606" d="M 77.261719 20.074219 L 84.125 20.074219 C 85.386719 20.074219 86.414062 19.046875 86.414062 17.789062 C 86.414062 16.527344 85.386719 15.5 84.125 15.5 L 77.261719 15.5 C 76.003906 15.5 74.976562 16.527344 74.976562 17.789062 C 74.976562 19.046875 76.003906 20.074219 77.261719 20.074219 " fill-opacity="1" fill-rule="nonzero"/><path fill="#040606" d="M 79.550781 129.875 L 70.402344 129.875 C 69.140625 129.875 68.113281 130.902344 68.113281 132.164062 C 68.113281 133.421875 69.140625 134.449219 70.402344 134.449219 L 79.550781 134.449219 C 80.8125 134.449219 81.839844 133.421875 81.839844 132.164062 C 81.839844 130.902344 80.8125 129.875 79.550781 129.875 " fill-opacity="1" fill-rule="nonzero"/><path fill="#040606" d="M 88.699219 42.949219 L 86.414062 42.949219 C 85.152344 42.949219 84.125 43.976562 84.125 45.238281 C 84.125 46.5 85.152344 47.527344 86.414062 47.527344 L 88.699219 47.527344 C 89.960938 47.527344 90.988281 46.5 90.988281 45.238281 C 90.988281 43.976562 89.960938 42.949219 88.699219 42.949219 " fill-opacity="1" fill-rule="nonzero"/><path fill="#040606" d="M 100.136719 42.949219 L 97.851562 42.949219 C 96.589844 42.949219 95.5625 43.976562 95.5625 45.238281 C 95.5625 46.5 96.589844 47.527344 97.851562 47.527344 L 100.136719 47.527344 C 101.398438 47.527344 102.425781 46.5 102.425781 45.238281 C 102.425781 43.976562 101.398438 42.949219 100.136719 42.949219 " fill-opacity="1" fill-rule="nonzero"/><path fill="#040606" d="M 120.726562 47.527344 L 132.164062 47.527344 C 133.421875 47.527344 134.449219 46.5 134.449219 45.238281 C 134.449219 43.976562 133.421875 42.949219 132.164062 42.949219 L 120.726562 42.949219 C 119.464844 42.949219 118.4375 43.976562 118.4375 45.238281 C 118.4375 46.5 119.464844 47.527344 120.726562 47.527344 " fill-opacity="1" fill-rule="nonzero"/><path fill="#040606" d="M 111.574219 84.125 L 90.988281 84.125 C 89.726562 84.125 88.699219 85.152344 88.699219 86.414062 C 88.699219 87.671875 89.726562 88.699219 90.988281 88.699219 L 111.574219 88.699219 C 112.835938 88.699219 113.863281 87.671875 113.863281 86.414062 C 113.863281 85.152344 112.835938 84.125 111.574219 84.125 " fill-opacity="1" fill-rule="nonzero"/><path fill="#040606" d="M 107 93.277344 L 90.988281 93.277344 C 89.726562 93.277344 88.699219 94.304688 88.699219 95.5625 C 88.699219 96.824219 89.726562 97.851562 90.988281 97.851562 L 107 97.851562 C 108.261719 97.851562 109.289062 96.824219 109.289062 95.5625 C 109.289062 94.304688 108.261719 93.277344 107 93.277344 " fill-opacity="1" fill-rule="nonzero"/><path fill="#040606" d="M 127.589844 84.125 L 120.726562 84.125 C 119.464844 84.125 118.4375 85.152344 118.4375 86.414062 C 118.4375 87.671875 119.464844 88.699219 120.726562 88.699219 L 127.589844 88.699219 C 128.847656 88.699219 129.875 87.671875 129.875 86.414062 C 129.875 85.152344 128.847656 84.125 127.589844 84.125 " fill-opacity="1" fill-rule="nonzero"/><path fill="#040606" d="M 123.011719 93.277344 L 116.152344 93.277344 C 114.890625 93.277344 113.863281 94.304688 113.863281 95.5625 C 113.863281 96.824219 114.890625 97.851562 116.152344 97.851562 L 123.011719 97.851562 C 124.273438 97.851562 125.300781 96.824219 125.300781 95.5625 C 125.300781 94.304688 124.273438 93.277344 123.011719 93.277344 " fill-opacity="1" fill-rule="nonzero"/></svg>