<svg xmlns="http://www.w3.org/2000/svg" xmlns:xlink="http://www.w3.org/1999/xlink" width="200" zoomAndPan="magnify" viewBox="0 0 150 149.999998" height="200" preserveAspectRatio="xMidYMid meet" version="1.0"><defs><clipPath id="69bb9c4f82"><path d="M 2.347656 15 L 127 15 L 127 127.5 L 2.347656 127.5 Z M 2.347656 15 " clip-rule="nonzero"/></clipPath><clipPath id="1d01e3c2df"><path d="M 2.347656 41 L 127 41 L 127 45 L 2.347656 45 Z M 2.347656 41 " clip-rule="nonzero"/></clipPath><clipPath id="58cb43e03a"><path d="M 87 54 L 147.847656 54 L 147.847656 115 L 87 115 Z M 87 54 " clip-rule="nonzero"/></clipPath></defs><g clip-path="url(#69bb9c4f82)"><path fill="#000000" d="M 117.078125 127.5 L 12.382812 127.5 C 7.113281 127.5 2.949219 123.25 2.949219 118.066406 L 2.949219 25.027344 C 2.949219 19.757812 7.199219 15.59375 12.382812 15.59375 L 117.078125 15.59375 C 122.261719 15.59375 126.507812 19.84375 126.507812 25.027344 L 126.507812 56.804688 C 126.507812 59.015625 123.109375 59.015625 123.109375 56.804688 L 123.109375 25.027344 C 123.109375 21.710938 120.390625 18.992188 117.078125 18.992188 L 12.382812 18.992188 C 8.980469 18.992188 6.347656 21.710938 6.347656 25.027344 L 6.347656 118.066406 C 6.347656 121.382812 8.980469 124.101562 12.382812 124.101562 L 117.078125 124.101562 C 120.390625 124.101562 123.109375 121.382812 123.109375 118.066406 L 123.109375 111.867188 C 123.109375 109.65625 126.507812 109.65625 126.507812 111.867188 L 126.507812 118.066406 C 126.507812 123.25 122.261719 127.5 117.078125 127.5 Z M 117.078125 127.5 " fill-opacity="1" fill-rule="evenodd"/></g><g clip-path="url(#1d01e3c2df)"><path fill="#000000" d="M 124.808594 44.570312 L 4.5625 44.570312 C 2.355469 44.570312 2.355469 41.171875 4.5625 41.171875 L 124.808594 41.171875 C 127.019531 41.171875 127.019531 44.570312 124.808594 44.570312 Z M 124.808594 44.570312 " fill-opacity="1" fill-rule="evenodd"/></g><path fill="#000000" d="M 22.070312 30.550781 L 14.082031 30.550781 C 11.871094 30.550781 11.871094 27.152344 14.082031 27.152344 L 22.070312 27.152344 C 24.277344 27.152344 24.277344 30.550781 22.070312 30.550781 Z M 22.070312 30.550781 " fill-opacity="1" fill-rule="evenodd"/><path fill="#000000" d="M 38.640625 30.550781 L 30.652344 30.550781 C 28.441406 30.550781 28.441406 27.152344 30.652344 27.152344 L 38.640625 27.152344 C 40.851562 27.152344 40.851562 30.550781 38.640625 30.550781 Z M 38.640625 30.550781 " fill-opacity="1" fill-rule="evenodd"/><path fill="#000000" d="M 55.210938 30.550781 L 47.308594 30.550781 C 45.015625 30.550781 45.015625 27.152344 47.308594 27.152344 L 55.210938 27.152344 C 57.503906 27.152344 57.503906 30.550781 55.210938 30.550781 Z M 55.210938 30.550781 " fill-opacity="1" fill-rule="evenodd"/><path fill="#000000" d="M 116.566406 38.960938 L 72.972656 38.960938 C 70.761719 38.960938 68.976562 37.175781 68.976562 34.882812 L 68.976562 25.195312 C 68.976562 22.988281 70.761719 21.203125 72.972656 21.203125 L 116.566406 21.203125 C 118.777344 21.203125 120.5625 22.988281 120.5625 25.195312 L 120.5625 34.882812 C 120.5625 37.175781 118.777344 38.960938 116.566406 38.960938 Z M 72.972656 24.601562 C 72.632812 24.601562 72.378906 24.855469 72.378906 25.195312 L 72.378906 34.882812 C 72.378906 35.222656 72.632812 35.5625 72.972656 35.5625 L 116.566406 35.5625 C 116.90625 35.5625 117.160156 35.222656 117.160156 34.882812 L 117.160156 25.195312 C 117.160156 24.855469 116.90625 24.601562 116.566406 24.601562 Z M 72.972656 24.601562 " fill-opacity="1" fill-rule="evenodd"/><path fill="#000000" d="M 111.636719 31.738281 L 77.816406 31.738281 C 75.605469 31.738281 75.605469 28.339844 77.816406 28.339844 L 111.636719 28.339844 C 113.933594 28.339844 113.933594 31.738281 111.636719 31.738281 Z M 111.636719 31.738281 " fill-opacity="1" fill-rule="evenodd"/><path fill="#000000" d="M 64.730469 44.570312 C 63.792969 44.570312 63.03125 43.804688 63.03125 42.871094 L 63.03125 17.210938 C 63.03125 15 66.429688 15 66.429688 17.210938 L 66.429688 42.871094 C 66.429688 43.804688 65.664062 44.570312 64.730469 44.570312 Z M 64.730469 44.570312 " fill-opacity="1" fill-rule="evenodd"/><g clip-path="url(#58cb43e03a)"><path fill="#000000" d="M 117.671875 114.5 C 101.101562 114.5 87.589844 100.988281 87.589844 84.335938 C 87.589844 67.679688 101.101562 54.171875 117.671875 54.171875 C 134.328125 54.171875 147.839844 67.679688 147.839844 84.335938 C 147.839844 100.988281 134.328125 114.5 117.671875 114.5 Z M 117.671875 57.570312 C 102.96875 57.570312 90.988281 69.550781 90.988281 84.335938 C 90.988281 99.121094 102.96875 111.101562 117.671875 111.101562 C 132.457031 111.101562 144.441406 99.121094 144.441406 84.335938 C 144.441406 69.550781 132.457031 57.570312 117.671875 57.570312 Z M 117.671875 57.570312 " fill-opacity="1" fill-rule="evenodd"/></g><path fill="#000000" d="M 94.386719 69.804688 L 69.0625 69.804688 C 66.855469 69.804688 66.855469 66.40625 69.0625 66.40625 L 94.386719 66.40625 C 96.597656 66.40625 96.597656 69.804688 94.386719 69.804688 Z M 94.386719 69.804688 " fill-opacity="1" fill-rule="evenodd"/><path fill="#000000" d="M 89.289062 84.503906 L 69.0625 84.503906 C 66.855469 84.503906 66.855469 81.105469 69.0625 81.105469 L 89.289062 81.105469 C 91.496094 81.105469 91.582031 84.503906 89.289062 84.503906 Z M 89.289062 84.503906 " fill-opacity="1" fill-rule="evenodd"/><path fill="#000000" d="M 47.476562 85.523438 L 19.691406 85.523438 C 16.714844 85.523438 14.335938 83.144531 14.335938 80.171875 L 14.335938 55.957031 C 14.335938 53.066406 16.714844 50.6875 19.691406 50.6875 L 47.476562 50.6875 C 50.453125 50.6875 52.832031 53.066406 52.832031 55.957031 L 52.832031 80.171875 C 52.832031 83.144531 50.453125 85.523438 47.476562 85.523438 Z M 19.691406 54.085938 C 18.585938 54.085938 17.734375 54.9375 17.734375 55.957031 L 17.734375 80.171875 C 17.734375 81.277344 18.585938 82.125 19.691406 82.125 L 47.476562 82.125 C 48.582031 82.125 49.433594 81.277344 49.433594 80.171875 L 49.433594 55.957031 C 49.433594 54.9375 48.582031 54.085938 47.476562 54.085938 Z M 19.691406 54.085938 " fill-opacity="1" fill-rule="evenodd"/><path fill="#000000" d="M 104.074219 55.019531 L 69.0625 55.019531 C 66.855469 55.019531 66.855469 51.621094 69.0625 51.621094 L 104.074219 51.621094 C 106.371094 51.621094 106.371094 55.019531 104.074219 55.019531 Z M 104.074219 55.019531 " fill-opacity="1" fill-rule="evenodd"/><path fill="#000000" d="M 92.515625 99.203125 L 16.035156 99.203125 C 13.824219 99.203125 13.824219 95.804688 16.035156 95.804688 L 92.515625 95.804688 C 94.726562 95.804688 94.726562 99.203125 92.515625 99.203125 Z M 92.515625 99.203125 " fill-opacity="1" fill-rule="evenodd"/><path fill="#000000" d="M 112.234375 113.988281 L 16.035156 113.988281 C 13.824219 113.988281 13.824219 110.589844 16.035156 110.589844 L 112.234375 110.589844 C 114.441406 110.589844 114.441406 113.988281 112.234375 113.988281 Z M 112.234375 113.988281 " fill-opacity="1" fill-rule="evenodd"/><path fill="#000000" d="M 106.539062 95.042969 C 106.113281 95.042969 105.6875 94.871094 105.347656 94.53125 L 96.339844 85.523438 C 95.660156 84.84375 95.660156 83.824219 96.339844 83.144531 L 105.347656 74.140625 C 106.878906 72.523438 109.34375 74.902344 107.730469 76.519531 L 99.910156 84.335938 L 107.730469 92.152344 C 108.832031 93.171875 108.070312 95.042969 106.539062 95.042969 Z M 106.539062 95.042969 " fill-opacity="1" fill-rule="evenodd"/><path fill="#000000" d="M 128.890625 95.042969 C 127.359375 95.042969 126.59375 93.171875 127.699219 92.152344 L 135.515625 84.335938 L 127.699219 76.519531 C 126.085938 74.988281 128.464844 72.523438 130.078125 74.140625 L 139.085938 83.144531 C 139.765625 83.824219 139.765625 84.84375 139.085938 85.523438 L 130.078125 94.53125 C 129.738281 94.871094 129.3125 95.042969 128.890625 95.042969 Z M 128.890625 95.042969 " fill-opacity="1" fill-rule="evenodd"/><path fill="#000000" d="M 111.894531 96.484375 C 110.535156 96.484375 109.769531 95.042969 110.449219 93.9375 L 122.429688 73.035156 C 123.535156 71.164062 126.507812 72.78125 125.40625 74.734375 L 113.335938 95.636719 C 113.082031 96.144531 112.488281 96.484375 111.894531 96.484375 Z M 111.894531 96.484375 " fill-opacity="1" fill-rule="evenodd"/></svg>